<svg id="Layer_1" data-name="Layer 1" xmlns="http://www.w3.org/2000/svg" viewBox="0 0 795 523.13"><title>boc_full</title><path d="M983.91,493.06v82.77h-4.68q-34,0-68.09,0c-68.85-.06-132.31-51.08-147.14-118.29-18.59-84.25,32.7-165,117.06-183.72a159.05,159.05,0,0,1,30.83-3.46c23.08-.5,46.17-.16,69.26-.15.88,0,1.76.1,2.86.17V353h-4.75q-32.68,0-65.37,0a70.52,70.52,0,0,0-69.26,57.41c-7.26,38,19.27,75.73,57.54,81.59a98.32,98.32,0,0,0,14.32,1c21,.11,42,0,63,0ZM971.15,283h-4.29c-17.12,0-34.23-.09-51.35,0-24.23.15-47.23,5.4-68.64,17C795,328.14,765.76,384.17,774.53,443.6c5.31,36,22.77,65.52,51.08,88.35,22.94,18.5,49.34,29,78.75,30.49,20.83,1,41.74.24,62.61.41,3.24,0,4.24-1,4.21-4.23q-.18-24.12,0-48.23c0-3.47-1.13-4.39-4.49-4.36-16.73.15-33.46.28-50.18,0a113.26,113.26,0,0,1-21.19-2.23c-43.51-9.21-72.1-53-63.29-96.56a83.33,83.33,0,0,1,82.11-67.13c17.5,0,35-.12,52.51.09,3.74,0,4.56-1.23,4.53-4.65-.14-15.17-.06-30.34-.06-45.51C971.15,287.83,971.15,285.66,971.15,283Z" transform="translate(-197 -157.19)"/><path d="M391.51,413.72c10.74,4.87,20.33,10.29,27.7,18.8,14.88,17.18,20.56,37.61,19.56,59.84-1.76,39-23.44,65.08-62.92,76.69a165,165,0,0,1-46.44,6.46c-41,.09-82,0-123,0-1,0-2.06-.09-3.45-.15v-304a14,14,0,0,1,2.38-.38c40.21,0,80.41-.29,120.61.22,19.88.25,38.83,5.05,55.15,17.23s24.75,28.92,28.33,48.48a110.26,110.26,0,0,1-3.62,54.89A49.59,49.59,0,0,1,391.51,413.72Zm-176.37,9.61q0,66.9,0,133.8c0,5.89,0,5.89,6,5.89,35.65,0,71.31.37,107-.2,12.6-.2,25.25-2.15,37.71-4.26a82.09,82.09,0,0,0,29.77-11.84C416,534,425.73,515.17,426.26,491.51c.67-30.16-11.25-57.41-45.19-68.18-8.36-2.65-8.55-3-7.74-11.86a4.23,4.23,0,0,1,2.07-3.08c9.95-3.57,15.48-11.23,18.52-20.67,6.89-21.38,6.88-42.82-1.23-63.93-5.43-14.15-15.2-24.53-28.81-31.25a85.1,85.1,0,0,0-37.12-8.76c-35.39-.35-70.79-.21-106.18-.25-5.43,0-5.44,0-5.44,5.6Q215.14,356.24,215.14,423.34Z" transform="translate(-197 -157.19)"/><path d="M437.29,416c2.31-52.05,28.72-97,80.46-125.54,59.49-32.87,132.61-23.61,182.72,21.61,62.58,56.47,66.63,152.82,8.47,213.81-35.3,37-79.2,53.76-130,48.47C515.14,567.67,470.51,533.85,446.41,474,439.86,457.72,437.47,440.51,437.29,416ZM589.55,562.59c23.85-.35,42.95-3.88,61.19-11.63,67.07-28.5,101.67-100.87,80.16-168.41-21-65.87-87.27-107.18-158.43-97-32.29,4.61-60.41,18.42-82.89,42.23-35.84,38-47.81,82.75-33.73,133.08C472.76,521.24,529.75,562.57,589.55,562.59Z" transform="translate(-197 -157.19)"/><path d="M971.15,283c0,2.7,0,4.87,0,7,0,15.17-.08,30.34.06,45.51,0,3.42-.79,4.69-4.53,4.65-17.5-.21-35-.1-52.51-.09a83.33,83.33,0,0,0-82.11,67.13c-8.8,43.55,19.79,87.35,63.29,96.56A113.26,113.26,0,0,0,916.54,506c16.72.32,33.45.19,50.18,0,3.36,0,4.53.89,4.49,4.36q-.23,24.12,0,48.23c0,3.19-1,4.25-4.21,4.23-20.87-.17-41.79.61-62.61-.41-29.42-1.44-55.82-12-78.75-30.49-28.31-22.83-45.77-52.34-51.08-88.35C765.76,384.17,795,328.14,846.87,300c21.41-11.61,44.4-16.87,68.64-17,17.12-.1,34.23,0,51.35,0Z" transform="translate(-197 -157.19)" style="fill:#fdc60d"/><path d="M215.14,423.34q0-67.1,0-134.19c0-5.59,0-5.61,5.44-5.6,35.39,0,70.79-.1,106.18.25a85.1,85.1,0,0,1,37.12,8.76c13.61,6.72,23.38,17.1,28.81,31.25,8.1,21.11,8.12,42.55,1.23,63.93-3,9.44-8.57,17.1-18.52,20.67a4.23,4.23,0,0,0-2.07,3.08c-.81,8.81-.62,9.21,7.74,11.86,33.94,10.77,45.86,38,45.19,68.18-.53,23.66-10.27,42.46-30.64,55.22a82.09,82.09,0,0,1-29.77,11.84c-12.46,2.11-25.11,4.06-37.71,4.26-35.65.56-71.31.2-107,.2-6,0-6,0-6-5.89Q215.14,490.24,215.14,423.34Zm62.24,19.1c0,24.4,0,48.51,0,72.61,0,2.41,1.29,2.74,3.2,2.73,6,0,12,.33,17.89-.08,11-.75,22-1.33,32.79-3.14,9.77-1.64,18.45-6.27,24.13-14.95a36,36,0,0,0-19.94-54.26,64,64,0,0,0-16-2.79C305.59,442.17,291.75,442.43,277.38,442.43Zm0-79c0,10.24.08,20.48-.05,30.72,0,2.86.52,4.23,3.8,4.09,6.34-.26,12.71.15,19-.2,10.3-.57,20.52-2.06,28.84-8.87,11-9,12.6-21.19,10.24-34.24-2.28-12.58-10.54-19.81-22.38-23.28-11.61-3.41-23.59-2.68-35.49-2.88-3.34-.06-4.11,1.21-4.06,4.32C277.47,343.17,277.37,353.28,277.37,363.39Z" transform="translate(-197 -157.19)" style="fill:#fdc60d"/><path d="M589.55,562.59c-59.8,0-116.79-41.35-133.7-101.75-14.09-50.33-2.12-95.12,33.73-133.08,22.48-23.8,50.6-37.62,82.89-42.23,71.17-10.16,137.45,31.14,158.43,97,21.51,67.54-13.09,139.91-80.16,168.41C632.5,558.71,613.4,562.24,589.55,562.59Zm4.15-53.34c7-1,14.13-1.59,21-3.11,46.95-10.36,76.43-58.52,64-104.34C665.47,352.63,612,325.34,563.38,343c-42.56,15.44-66.06,59-54.81,101.59C518.52,482.24,553.5,508.57,593.7,509.26Z" transform="translate(-197 -157.19)" style="fill:#fdc60d"/><path d="M277.38,442.43c14.37,0,28.21-.26,42,.13a64,64,0,0,1,16,2.79,36,36,0,0,1,19.94,54.26c-5.68,8.68-14.36,13.31-24.13,14.95-10.8,1.81-21.83,2.39-32.79,3.14-5.94.41-11.93,0-17.89.08-1.92,0-3.21-.32-3.2-2.73C277.4,490.94,277.38,466.83,277.38,442.43ZM290.07,505c6,0,11.77.5,17.37-.12,8.83-1,17.83-1.85,26.29-4.35,10.44-3.08,14.87-10.61,14.61-21.24-.27-11.29-5-18.78-15.59-21.44-8.32-2.1-17.07-2.62-25.67-3.35-5.6-.48-11.27-.09-17-.09Z" transform="translate(-197 -157.19)"/><path d="M277.37,363.39c0-10.11.11-20.22-.06-30.33-.05-3.11.72-4.38,4.06-4.32,11.9.2,23.88-.53,35.49,2.88,11.84,3.47,20.1,10.7,22.38,23.28,2.37,13.05.76,25.23-10.24,34.24-8.31,6.81-18.53,8.3-28.84,8.87-6.33.35-12.71-.07-19,.2-3.28.14-3.84-1.24-3.8-4.09C277.45,383.87,277.37,373.63,277.37,363.39Zm12.84-22v43.91c7.34,1.12,20-.4,26.16-3.06,7.78-3.38,11.4-9.51,11.25-19.06-.15-9.73-3.72-15.55-11.84-18.6S299.11,341.3,290.2,341.34Z" transform="translate(-197 -157.19)"/><path d="M593.7,509.26c-40.2-.69-75.18-27-85.13-64.69C497.33,402,520.82,358.41,563.38,343c48.58-17.63,102.09,9.66,115.39,58.84,12.39,45.82-17.09,94-64,104.34C607.83,507.67,600.72,508.24,593.7,509.26Z" transform="translate(-197 -157.19)"/><path d="M290.07,505V454.43c5.73,0,11.4-.39,17,.09,8.6.74,17.36,1.26,25.67,3.35,10.56,2.66,15.32,10.15,15.59,21.44.26,10.63-4.17,18.16-14.61,21.24-8.46,2.49-17.46,3.37-26.29,4.35C301.84,505.53,296.12,505,290.07,505Z" transform="translate(-197 -157.19)" style="fill:#fff"/><path d="M290.2,341.34c8.9,0,17.44.12,25.58,3.18s11.69,8.87,11.84,18.6c.14,9.55-3.48,15.69-11.25,19.06-6.13,2.66-18.82,4.18-26.16,3.06Z" transform="translate(-197 -157.19)" style="fill:#fff"/><path d="M657.77,355.61a5.28,5.28,0,0,1-2.28-.5,7.47,7.47,0,0,1-3.3-2.89,5.06,5.06,0,0,1-.62-4,5.8,5.8,0,0,1,2.16-3.46,6.13,6.13,0,0,1,.82-.47l.42-.22.24-.13-.14-.74-.22-.07-.64-.2c-.47-.15-1-.31-1.46-.44a4.38,4.38,0,0,1-2.6-1.78,3,3,0,0,1-.44-1c-.22-.84-.44-1.4-1.46-1.4l-.4,0h-.21c-2.08,0-5-2-5.05-4.12a4.68,4.68,0,0,1,1.23-3.56,1.17,1.17,0,0,0,.21-1.69,1.43,1.43,0,0,1-.13-1.35,1.73,1.73,0,0,1,1.21-1c1-.23,2-.51,3-.79l.22-.06a.87.87,0,0,0,.6-.46,1.13,1.13,0,0,0-.12-1c-1.13-2.32-.61-3.8,1.74-5a5.83,5.83,0,0,1,2.58-.66,5.32,5.32,0,0,1,3.37,1.3,13.7,13.7,0,0,1,1.77,1.82,1.64,1.64,0,0,1,.31.8,1.7,1.7,0,0,0,1.8,1.61c3.5.11,6.44,1.78,9,5.12a9.44,9.44,0,0,1,1.52,8.18,11.52,11.52,0,0,1-1.46,3.14l0,.05a12.78,12.78,0,0,1-4,4.44,5.69,5.69,0,0,1-3,1.14h-.15c-1,0-2-.06-3-.08l-2.26,0h-.09a1.59,1.59,0,0,0-1.56,1,3.6,3.6,0,0,0,1.18,4.71,3.1,3.1,0,0,0,1.87.54,3.86,3.86,0,0,0,2.36-.75,3.4,3.4,0,0,1,.9-.58,5.75,5.75,0,0,1,1.53,1.41,1.35,1.35,0,0,1-.23.64A6.68,6.68,0,0,1,657.77,355.61Zm3.56-25.75c.22.39.4.72.59,1a7.13,7.13,0,0,1,.39,5.3,8,8,0,0,1-3.3,4.88l-.34.24c-.35.24-.72.49-1.06.77a1.31,1.31,0,0,0-.45.92c0,.28.23.49.78.69a6,6,0,0,0,2,.39,4,4,0,0,0,1.84-.44l.6-.28a4.34,4.34,0,0,0,1.73-1.13,19.1,19.1,0,0,0,2.25-3.88,6.3,6.3,0,0,0-.76-6.23,10,10,0,0,0-4.15-3.44l-1.11-.54Zm-8.82,1.77a3.13,3.13,0,0,1,1.16.64c.53.45.54.71.09,1.34a13.07,13.07,0,0,0-1.12,1.77,1.69,1.69,0,0,0,0,1.29,3.09,3.09,0,0,0,2.74,1.56h0a2.27,2.27,0,0,0,1.13-.28,6.33,6.33,0,0,0,3.42-5.64v-.08c0-.08,0-.18,0-.29a2.93,2.93,0,0,0-.29-1.25,6.84,6.84,0,0,0-6-3.79h-.13a14.11,14.11,0,0,0-3.52.68c-.55.15-1.12.31-1.67.43-1,.22-1.11,1-1.18,1.63s-.1.79-.41.94a.5.5,0,0,0-.26.3,1.7,1.7,0,0,0,.06,1.09,6.91,6.91,0,0,0,1.06,1.66,2.14,2.14,0,0,0,1.59.75,2.17,2.17,0,0,0,1.59-.73,9.19,9.19,0,0,0,.74-.94,9.07,9.07,0,0,1,.62-.8,1,1,0,0,1,.5-.3Zm.83-11a1.12,1.12,0,0,0-1,.36,1.31,1.31,0,0,0,.12,1.21,1.81,1.81,0,0,1,.09,1,1,1,0,0,0,.13.85.73.73,0,0,0,.6.25h.17a6.68,6.68,0,0,0,1.75-.4,1.34,1.34,0,0,0,.67-1.16,3,3,0,0,0-2.41-2.11Z" transform="translate(-197 -157.19)"/><path d="M504.14,368.09a12.46,12.46,0,0,1-3.9-.58,14.14,14.14,0,0,1-7.63-6.07,9.74,9.74,0,0,1-1.84-5.59v-.5a15.28,15.28,0,0,0,0-2.28,7.35,7.35,0,0,1,.9-4c1.75-3.63,3.9-5.92,6.79-7.2a10.16,10.16,0,0,1,4-1.07l.42,0a9.59,9.59,0,0,1,7.46,3.87,6.38,6.38,0,0,1,1.14,3.39c0,.14,0,.28,0,.42l0,.34.31.24-.42-.19,0,.56a7.56,7.56,0,0,1-1.53,4.2c-1.43,2-2.86,3.34-5.19,3.59a9.19,9.19,0,0,1-1,.05,5.61,5.61,0,0,1-4.25-1.71,1.92,1.92,0,0,0-1.39-.72,2.28,2.28,0,0,0-.76.15.86.86,0,0,1-.28.05c-.34,0-.59-.29-.94-.73l-.28-.34a1.09,1.09,0,0,1,.11-.64c.6-.84,1.28-1.66,1.94-2.45l.38-.46c1.15-1.39,2.29-2.75,3.39-4,.26-.3.46-.45.63-.45a1.29,1.29,0,0,1,.72.43,2.24,2.24,0,0,0,.33.25c.4.26.62.48.64.67s-.12.49-.45.87l-.13.14a20.39,20.39,0,0,0-1.87,2.36,2.18,2.18,0,0,0-.21,1.85c.23.49,1.09.53,1.35.53a2.25,2.25,0,0,0,.42,0,3.24,3.24,0,0,0,1.65-.87,12.12,12.12,0,0,0,1.83-2.41,3.48,3.48,0,0,0,.41-2.1,5,5,0,0,0-4.91-3.85,4.09,4.09,0,0,0-1.83.41,13.13,13.13,0,0,0-3.92,2.75,8.51,8.51,0,0,0-2.4,6.49,10.37,10.37,0,0,0,3.26,7,12.09,12.09,0,0,0,7,3.52,10.93,10.93,0,0,0,1.49.11,7.68,7.68,0,0,0,5.8-2.47A20.49,20.49,0,0,0,515,356a4.57,4.57,0,0,0,.21-3.61,6,6,0,0,0-3-3.14l.17-.17.42-.41a10.33,10.33,0,0,0,1-1c.22-.28.41-.42.57-.42a.82.82,0,0,1,.49.26,10,10,0,0,1,3.13,4.44,9.53,9.53,0,0,1,.27,3.63c-.45,3.92-2.86,6.77-5.16,9a10.76,10.76,0,0,1-5.91,3.19A21.59,21.59,0,0,1,504.14,368.09Z" transform="translate(-197 -157.19)"/><path d="M601.45,323.94a18,18,0,0,1-2.89-.29,4.68,4.68,0,0,1-2.82-1.63,1.11,1.11,0,0,0-.82-.48,1.19,1.19,0,0,0-.84.48,5,5,0,0,1-3.62,1.5,4.1,4.1,0,0,1-1.51-.27,6.32,6.32,0,0,1-4.34-6.45v-1.36a10.11,10.11,0,0,1,.87-5.56,7.45,7.45,0,0,1,4-4.5,10.87,10.87,0,0,1,4.45-1,10.39,10.39,0,0,1,2.35.28,5.88,5.88,0,0,1,4.86,6.35,2.21,2.21,0,0,1-1.15,1.85,5,5,0,0,0-2,2.12c-.86,1.61-.28,2.56.93,3.57a4.37,4.37,0,0,0,2.82,1.11c2,0,3.64-1.61,4.46-3.11a11.78,11.78,0,0,0,1.5-6.78c-.39-4.34-2-7.28-4.82-9a11.19,11.19,0,0,0-5.76-1.64,12.71,12.71,0,0,0-6.74,2.06,8.66,8.66,0,0,0-1.27,1.11,3.49,3.49,0,0,1-2.23.78,1.57,1.57,0,0,1-.67-.12.36.36,0,0,1-.2-.18.7.7,0,0,1,.11-.47,9.27,9.27,0,0,1,2.4-3,11.7,11.7,0,0,1,4-2.09,13.48,13.48,0,0,1,2.33-.42l.72-.09c.56-.08,1.15-.13,1.71-.18l.72-.06H598l.91.18c.73.14,1.48.29,2.21.48a12.17,12.17,0,0,1,6.73,4.38,14.31,14.31,0,0,1,2.06,3.74,16.09,16.09,0,0,1,1.11,5.18,19.7,19.7,0,0,1-.16,2.84c0,.31-.06.61-.09.92a11.77,11.77,0,0,1-1.68,4.86,10.18,10.18,0,0,1-4.1,4A7.36,7.36,0,0,1,601.45,323.94Zm-11.09-7a1.38,1.38,0,0,0-1.06.57,1,1,0,0,0-.2.91,2.92,2.92,0,0,0,.67,1c.1.12.21.24.3.36l.23.31,1.79-1.37-.21-.3c-.13-.18-.23-.36-.34-.54a1.88,1.88,0,0,0-.82-.91A1,1,0,0,0,590.36,316.94Zm1-2.26a5.16,5.16,0,0,1,2.68.75l.52.31.05-.61c0-.19,0-.36,0-.51a2,2,0,0,1,.07-.62l0-.11a4.11,4.11,0,0,1,.76-1.39,3.42,3.42,0,0,1,1.23-.61l.23-.08a1.28,1.28,0,0,0,.79-.67,1.12,1.12,0,0,0,0-.9,4.66,4.66,0,0,0-1.11-1.79,4.47,4.47,0,0,0-3-1.08,6.75,6.75,0,0,0-1.89.29,6.38,6.38,0,0,0-4.42,5,7.46,7.46,0,0,0-.13,2.24c.05.83.58.89.73.89h0a1.28,1.28,0,0,0,.73-.29,3.11,3.11,0,0,1,1-.53A6.93,6.93,0,0,1,591.34,314.67Z" transform="translate(-197 -157.19)"/><path d="M535.36,337.26a3.26,3.26,0,0,1-1.54-.33,3.88,3.88,0,0,1-2.08-2.4A1.73,1.73,0,0,0,530,333h-.07a1.2,1.2,0,0,1-.92-.52,1.66,1.66,0,0,1-.35-1.35l.39-1.54c.14-.56.28-1.11.42-1.67a1.1,1.1,0,0,0-.12-1,.86.86,0,0,0-.72-.31h-.31a2.93,2.93,0,0,1-2.37-1.27,4.59,4.59,0,0,1-.69-3.88,6,6,0,0,1,5.87-4.21,6.28,6.28,0,0,1,1.13.1,2.75,2.75,0,0,0,.5,0,2,2,0,0,0,1.6-.82l.13-.15a14,14,0,0,1,3.22-2.91,10.61,10.61,0,0,1,5.21-1.81l.5,0,.49,0,.51,0,.64,0a8.73,8.73,0,0,1,7.13,3.74,13.41,13.41,0,0,1,3,8,8.47,8.47,0,0,1-1,3.64,7.36,7.36,0,0,1-3.17,3.34,2.15,2.15,0,0,1-.95.32.37.37,0,0,1-.14,0c-.09,0-.25-.39-.35-.62s-.18-.43-.31-.65L549,329l-.35.53-.28.4a5.2,5.2,0,0,0-.49.78,5.26,5.26,0,0,1-4.42,3.19,4,4,0,0,1-1-.12,3.58,3.58,0,0,0-.87-.13c-.89,0-1.24.56-1.64,1.35C539.32,336.22,537.22,337.26,535.36,337.26ZM539,320.65l-.48,0a5.39,5.39,0,0,0-2.48.88,10.25,10.25,0,0,0-3,2.71,12.48,12.48,0,0,0-1.2,3.08c-.12.41-.24.81-.37,1.21a1.5,1.5,0,0,0,.82,2.15,1.56,1.56,0,0,1,.22.36l.07.13a3,3,0,0,0,2.57,1.61,2.6,2.6,0,0,0,1.11-.25c1.37-.64,1.72-1.71,1.1-3.37-.08-.21-.18-.42-.28-.62-.18-.38-.41-.85-.33-1.07s.64-.69,1.43-1a.51.51,0,0,1,.19,0c.22,0,.46.23.72.7a15.92,15.92,0,0,0,1.12,1.84,1.88,1.88,0,0,0,1.51.76h0a1.72,1.72,0,0,0,1.18-.46l.15-.14c.7-.64,1.56-1.44,1.2-2.8a3.59,3.59,0,0,0-.94-3C542.4,322.08,541.08,320.65,539,320.65Zm4.53-4.75a9.28,9.28,0,0,0-1.87.2,10.63,10.63,0,0,0-1.79.6l-.78.3-.26.09,0,.75.21.1.13.07a1.22,1.22,0,0,0,.5.2,9.88,9.88,0,0,1,4,1.28,9.18,9.18,0,0,1,4,4.52,11.66,11.66,0,0,1,.64,2.94c0,.35.09.69.14,1,.16,1,.76,1.08.95,1.08h0a1.22,1.22,0,0,0,.76-.32,5,5,0,0,0,1.88-3.15,7.17,7.17,0,0,0-.72-4.42A8.6,8.6,0,0,0,543.52,315.9Zm-13.42,3.74a2.73,2.73,0,0,0-2.31,1.18,1.17,1.17,0,0,0-.19,1,1,1,0,0,0,.65.56c.5.16,1,.3,1.51.44l.65.18.33.09.32-.77c.2-.48.4-1,.58-1.49a.9.9,0,0,0-.38-.92A2.29,2.29,0,0,0,530.1,319.63Z" transform="translate(-197 -157.19)"/><path d="M680.89,365.11a12.54,12.54,0,0,1-2.62-.27,10.05,10.05,0,0,1-3.24-1.41,15.11,15.11,0,0,1-3.24-2.68,15.89,15.89,0,0,1-3.81-7.57,7.24,7.24,0,0,1-.09-.95c0-.17,0-.34,0-.52a8.33,8.33,0,0,1,3.53-6.75,5.89,5.89,0,0,1,3.52-1.36,4.81,4.81,0,0,1,.86.08l.25,0a.86.86,0,0,0,.65-.26,1,1,0,0,0,.24-.78c0-.7,0-1.15.55-1.51a2.63,2.63,0,0,1,2.51-.28,10.08,10.08,0,0,1,5.21,5,6.74,6.74,0,0,1,.54,4.78,4.46,4.46,0,0,1-2.06,2.86.58.58,0,0,1-.29.11s-.17,0-.38-.27l-.06-.07c-1.51-1.9-3.08-3.87-4.68-5.76a4.77,4.77,0,0,0-1.65-1.16,1.54,1.54,0,0,0-.65-.14,3.25,3.25,0,0,0-2.44,1.44,5.39,5.39,0,0,0-.4,5.5,14.78,14.78,0,0,0,4.95,6.2,8.91,8.91,0,0,0,2.85,1.23l.19.06a6.51,6.51,0,0,0,1.91.27,9.81,9.81,0,0,0,1.73-.17,11,11,0,0,0,5.08-2.64,10.83,10.83,0,0,0,3.09-4.26,8.73,8.73,0,0,0,.46-5.08,11.41,11.41,0,0,0-4.19-6.72,8.23,8.23,0,0,0-5.33-2.12l-.49,0h-.14c-.87,0-1.32-.59-1.84-1.28l-.36-.46s0-.06,0-.15a.71.71,0,0,1,.61-.34h.21c.54,0,1.09-.05,1.63-.05a10.28,10.28,0,0,1,1.56.1c3.42.53,6.28,2.45,8.75,5.89a10,10,0,0,1,2.09,5.58,1.93,1.93,0,0,0,.31,1,.79.79,0,0,1,0,1.05,2,2,0,0,0-.25.77c0,.08,0,.16,0,.24-.09.38-.17.78-.24,1.16a9.54,9.54,0,0,1-.65,2.36,15,15,0,0,1-2.51,3.78,19.8,19.8,0,0,1-4.14,3.45,13.4,13.4,0,0,1-5.18,1.84A17.09,17.09,0,0,1,680.89,365.11Zm-1.31-19,.26.28a15.1,15.1,0,0,1,1.18,1.5,11.25,11.25,0,0,0,2,2.34l.4.32.19-.48c.77-1.94-.3-4.29-1.75-5.62l-.26-.24Z" transform="translate(-197 -157.19)"/><path d="M617.67,328.23a5,5,0,0,1-4.1-1.81,6.74,6.74,0,0,1-1.34-5.78l0-.18c.24-1,.48-2.06.8-3.06a8.27,8.27,0,0,1,3.39-4.17c.82-.59,1.7-1.15,2.54-1.69l1.27-.82.67-.46.66-.46-.28-.32-.09-.12a.59.59,0,0,0-.35-.27l-.94-.21c-1-.22-2-.45-3-.63-.74-.13-.74-.13-.64-.78,0-.28.06-.56.07-.8.05-1,.35-1,.58-1a2.12,2.12,0,0,1,.51.08c2.68.69,5.39,1.42,8,2.17a.75.75,0,0,1,.3.42,2.43,2.43,0,0,1-1.29,2.26,17.52,17.52,0,0,0-6.71,5.83,7.48,7.48,0,0,0-1,5.71,3.22,3.22,0,0,0,1.5,1.9,1.66,1.66,0,0,0,.78.21c.77,0,1.41-.61,1.8-1.73a3.09,3.09,0,0,1,.41-.87h.12a7.43,7.43,0,0,1,1.87.33.74.74,0,0,1,.12.34c-.13,2-1.13,4.72-3.52,5.51A7.13,7.13,0,0,1,617.67,328.23Z" transform="translate(-197 -157.19)"/><path d="M563.52,326.92a3,3,0,0,1-.72-.09l-.07,0h-.07a5.77,5.77,0,0,1-.79.06,4.6,4.6,0,0,1-4.08-2.56,2.76,2.76,0,0,1-.24-1.16c0-.17,0-.34,0-.5l.08-.1a1.57,1.57,0,0,1,1-.26,2,2,0,0,1,1.35.41,2.69,2.69,0,0,1,.18.28,1.87,1.87,0,0,0,.51.62l.09.06a2.74,2.74,0,0,0,1.35.63.78.78,0,0,0,.26,0,2.16,2.16,0,0,0,1.23-1.54,22.29,22.29,0,0,0,.18-4.07,14,14,0,0,0-2.34-6.94,11.75,11.75,0,0,0-1.71-2.2,2.24,2.24,0,0,0-1.44-.47l-.33,0c-.54.07-.87.94-.94,1.24-.33,1.39-.58,1.58-1.43,1.7l-.21,0a.78.78,0,0,1-.83-.76,4.49,4.49,0,0,1,.89-3.64,5,5,0,0,1,3.68-1.71h.3c2.17,0,3.95,1,5.57,3.09a14.53,14.53,0,0,1,2.7,5.24,14.29,14.29,0,0,1,.38,7.39,8.4,8.4,0,0,1-1.76,3.87A3.88,3.88,0,0,1,563.52,326.92Z" transform="translate(-197 -157.19)"/><path d="M634.26,329.09c-3.89,0-6.86-3.66-6.92-6.93a7.65,7.65,0,0,1,2.15-5.56,7.21,7.21,0,0,1,5.1-2.17h.18A7.39,7.39,0,0,1,640,327a7.1,7.1,0,0,1-5.07,2.06h-.7Zm.94-12.41a4.59,4.59,0,0,0-3.33,1.32,4.38,4.38,0,0,0-1.2,3.21c.06,2.42,1.65,4,4.37,4.27h.25a4.49,4.49,0,0,0,3-1.54,4.25,4.25,0,0,0,1.35-2.89c-.07-1.79-1.74-4.4-4.2-4.4Z" transform="translate(-197 -157.19)"/><path d="M519.41,344.44h-.36a7.18,7.18,0,0,1-4.81-12.25,6.7,6.7,0,0,1,4.76-2h.87a6.6,6.6,0,0,1,4.79,2.12,7.12,7.12,0,0,1,2,5.21A7.36,7.36,0,0,1,519.41,344.44Zm-.61-12.16a4.73,4.73,0,0,0-3.31,1.56,3.82,3.82,0,0,0-1.13,2.76,4.7,4.7,0,0,0,4.63,4.23h.2a4.45,4.45,0,0,0,4.15-4.33,3.69,3.69,0,0,0-1.15-2.66,4.83,4.83,0,0,0-3.37-1.54h0Z" transform="translate(-197 -157.19)"/><path d="M618.24,547.44a7,7,0,0,1-1.64-.2,5.1,5.1,0,0,1-2.1-1.5,4.05,4.05,0,0,1-.82-3.86,17.6,17.6,0,0,1,.62-2.11l.09-.26a1.68,1.68,0,0,0-.42-1.94,11.87,11.87,0,0,1-3-4.51,18,18,0,0,1-1.59-7c0-.38,0-.77,0-1.16a15.32,15.32,0,0,1,.18-2.79,9.36,9.36,0,0,1,3.84-6.07,13.18,13.18,0,0,1,7.8-2.47c.41,0,.83,0,1.25.05a8.93,8.93,0,0,1,4.29,1.59,15.1,15.1,0,0,1,3.95,4.29,14.44,14.44,0,0,1,1.31,2.77c.12.32.25.64.38,1a32.52,32.52,0,0,1,1.17,3.16,27.51,27.51,0,0,1,.79,3.43c.34,2.12.59,4,.77,5.78.06.58,0,.69,0,.7s-.18.09-.82.12a7.42,7.42,0,0,0-.95.12l-.34.06-.32,0h0c-.18,0-.23,0-.31-.42-.13-.7-.25-1.41-.36-2.11-.14-.87-.29-1.78-.47-2.66-.4-2-.83-3.9-1.28-5.73a20.62,20.62,0,0,0-1.08-3.42,9.28,9.28,0,0,0-4.37-5.1,4.24,4.24,0,0,0-1.44-.3l-.43,0a20.77,20.77,0,0,0-2.59-.21,7.69,7.69,0,0,0-2.88.49,8.2,8.2,0,0,0-4.19,3.46,12.36,12.36,0,0,0-1.48,3.38,9.18,9.18,0,0,0,.22,4.9,21.59,21.59,0,0,0,2,4.33,18.77,18.77,0,0,0,1.74,2.44,1.06,1.06,0,0,0,.82.3,1.48,1.48,0,0,0,.82-.22,9.62,9.62,0,0,1,4.85-1.78c1.06-.1,2.14-.13,3-.14a1.07,1.07,0,0,0,1.16-1.09c0-.13,0-.27,0-.41a4.63,4.63,0,0,0-.06-1.5,31.24,31.24,0,0,0-1-3.14l-.06-.15a1.4,1.4,0,0,0-.51-.59l-.21-.17-.52-.49-.28.66-.09.19a1.11,1.11,0,0,0-.16.49c0,1.43-.92,2.33-2.3,3.33a1.67,1.67,0,0,1-.73.09,5.35,5.35,0,0,0-.59,0,4.13,4.13,0,0,1-.5,0,3.65,3.65,0,0,1-3.08-1.78,6.41,6.41,0,0,1-1.19-5.06,4.52,4.52,0,0,1,1.73-3.14,5.25,5.25,0,0,1,3-.91,7.28,7.28,0,0,1,1.5.17c2.32.49,4.13,1.9,5.69,4.42a11.35,11.35,0,0,1,1.66,5.44c0,.51,0,1,.06,1.52,0,.92.07,1.88.15,2.82a2.34,2.34,0,0,0,.79,1.35,7.35,7.35,0,0,1,2.27,3.55,3.79,3.79,0,0,1-1.19,4.22c-.13.11-.25.23-.38.36a4.43,4.43,0,0,1-.45.41,5.91,5.91,0,0,1-3.66,1.09h-.31a2.93,2.93,0,0,1-.89-.24,3.14,3.14,0,0,0-1.14-.24,2.17,2.17,0,0,0-1.56.67A5.66,5.66,0,0,1,618.24,547.44ZM616.92,541h-.8l-.05.49c0,.18,0,.37,0,.56a5.24,5.24,0,0,0,0,1.58c.1.45.58.6,1,.75l.37.13.49.22.12-.33h.14a2.07,2.07,0,0,0,.41,0c.35-.07.93-.25,1-.73a1.4,1.4,0,0,0-.44-1.13,19.72,19.72,0,0,0-1.78-1.37A.88.88,0,0,0,616.92,541Zm11.31-1.9-.14.07a1.23,1.23,0,0,0-.57.41c-.39.58-.73,1.19-1.06,1.77a.86.86,0,0,0-.08.53s0,.08,0,.12v.56l.56-.06a2.84,2.84,0,0,0,2-1,1.87,1.87,0,0,0,.38-1.45,1.53,1.53,0,0,0-.29-.62l-.1-.15-.25-.44ZM623,536.53l-1,.3c-.79.24-1.6.49-2.39.81a1.13,1.13,0,0,0-.79.87,1.19,1.19,0,0,0,.54,1.12c.66.53,1.36,1.05,2.09,1.55a1.56,1.56,0,0,0,.88.3,1.28,1.28,0,0,0,1.1-.69l.11-.19c.33-.56.67-1.14,1-1.75a1.79,1.79,0,0,0,.19-1.5,1.43,1.43,0,0,0-.93-.62c-.14,0-.29-.1-.44-.16l-.18-.08Zm-3.75-12.93a1.75,1.75,0,0,0-1.78,1.89,5.35,5.35,0,0,0,0,.81,2.11,2.11,0,0,0,1.91,1.82h0a1.23,1.23,0,0,0,.69-.21,2,2,0,0,0,1.1-2v0c0-.08,0-.16,0-.23a2.12,2.12,0,0,0-1.86-2.05Z" transform="translate(-197 -157.19)"/><path d="M715.06,418.87a9.65,9.65,0,0,1-1.45-.13,2.7,2.7,0,0,1-2.31-2.06,1.23,1.23,0,0,0-1.36-.93h-4.67a1.67,1.67,0,0,1-.64-.06,2.64,2.64,0,0,1,0-.59c0-.24,0-.47,0-.71v-.86c0-.34,0-.68,0-1a1.4,1.4,0,0,0-.35-1,1.07,1.07,0,0,0-.79-.31h-.2a7.2,7.2,0,0,1-.86.05,16.38,16.38,0,0,1-3.35-.47l-.49-.1c-1.31-.27-3-1.54-2.86-3.23a5.11,5.11,0,0,0,0-.9c-.12-1.67.61-2.91,2.43-4.15a14.26,14.26,0,0,1,4-1.67l.92-.28a21.87,21.87,0,0,1,3.16-.68c.5-.08,1-.16,1.5-.26l1.91-.38c1.25-.25,2.51-.5,3.76-.73.35-.07.71-.1,1.09-.15s.77-.08,1.17-.16a6.26,6.26,0,0,0,.82-.23,4.37,4.37,0,0,1,.81-.21,13.59,13.59,0,0,1,1.6-.08h.49v0c.08.41.13.83.19,1.24l.07.48c.07.49-.13.74-.63.81l-1.88.27c-1.48.21-3,.42-4.52.69s-3,.61-4.47.94l-1.56.35-1.08.22a25.42,25.42,0,0,0-3,.75,7.8,7.8,0,0,0-2.6,1.51,1.7,1.7,0,0,0-.67,1.46,2.09,2.09,0,0,0,1.14,1.54,4.91,4.91,0,0,0,2.67.54h.11a1.26,1.26,0,0,0,.94-.33,1.31,1.31,0,0,0,.33-1,4.22,4.22,0,0,1,.08-1.28,4.11,4.11,0,0,1,1.24-.12h.21a7.23,7.23,0,0,1,1-.09c.43,0,.43,0,.5.83,0,.21,0,.45.08.72.08.62.19,1.48,1.24,1.48a4.12,4.12,0,0,0,.59-.05h.1l.24,0c1-.1,1.39-.22,1.4-1.3,0-.1,0-.2,0-.33v-.17a4.53,4.53,0,0,1,.73-2.92,3.52,3.52,0,0,1,2.79-1.24l.71,0,1,0a4.57,4.57,0,0,1,2.45.56c1,.63,1.42,1.2,1.38,2,0,.23,0,.46,0,.69s0,.52,0,.76-.17.78-.66.78a1.35,1.35,0,0,1-.55-.14,4.44,4.44,0,0,0-1.44-.32c-.54-.05-.62-.17-.62-.59a1.78,1.78,0,0,0-.4-1,3.16,3.16,0,0,1-.17-.27l-.28-.51-.47.34-.3.19a1.79,1.79,0,0,0-.84.78,3.41,3.41,0,0,0-.16,1.49v.23c0,.46.59.73.88.76l1.11.1c.56,0,1.08.08,1.61.16a4.09,4.09,0,0,1,2.31,2.51,5.57,5.57,0,0,0,.24.85,2.36,2.36,0,0,1,.21,1c-.42,2.71-1.39,4.31-3.23,5.33A4.66,4.66,0,0,1,715.06,418.87Zm-.57-5.09c0,.29,0,.54,0,.79a1.15,1.15,0,0,0,1.1,1.35h.14a1.32,1.32,0,0,0,1.41-1c0-.1.06-.2.09-.3a3.43,3.43,0,0,0,.2-1,2.86,2.86,0,0,0-.31-1.71,2.24,2.24,0,0,0-1-.69l-.38-.17-.5-.27-.2.53-.13.32a5.65,5.65,0,0,0-.31.89,1.9,1.9,0,0,0,0,.73v.08Zm-5.59-2.66a1.22,1.22,0,0,0-.34,0,1.65,1.65,0,0,0-.6.36l-.15.12-.46.33.39.42.1.13a1,1,0,0,0,.65.49,9.33,9.33,0,0,0,1.45.12h.38a1.09,1.09,0,0,0,.88-1,1.15,1.15,0,0,0-.77-1,1.61,1.61,0,0,0-.49-.07h-.78Z" transform="translate(-197 -157.19)"/><path d="M681.35,509.08c-.5,0-1,0-1.51-.06h-.18a4.21,4.21,0,0,1-2-.83l-.62-.38a10.26,10.26,0,0,1-3.28-3.37,6.26,6.26,0,0,1-.89-2.09,11.94,11.94,0,0,1-.44-3.32,7,7,0,0,1,3.17-5.5,7.73,7.73,0,0,1,2.6-1,1.37,1.37,0,0,0,1.28-1.36A4.36,4.36,0,0,1,684,487h.21a10.62,10.62,0,0,1,5.41,1.61,13.48,13.48,0,0,1,4.49,4.4,9.15,9.15,0,0,1,.85,1.85c.1.26.2.52.3.78a.34.34,0,0,1,0,.15,2.71,2.71,0,0,1-1.45,1.59.4.4,0,0,1-.15.05.64.64,0,0,1-.12-.25,9,9,0,0,0-2.94-4.23,16.32,16.32,0,0,0-2.89-2,9.72,9.72,0,0,0-2.83-.93l-.18,0a2.3,2.3,0,0,0-1.16.47l-.24.15a.61.61,0,0,0-.29.52,1,1,0,0,0,.28.83,3.28,3.28,0,0,0,1.06.57,9.47,9.47,0,0,1,3.47,2.32l.08.07a8.51,8.51,0,0,1,2.48,3.61,7.52,7.52,0,0,1,.17,2.7c0,.17-.38.53-.56.71l-.05.05a1.81,1.81,0,0,1-1.4.48c-.28,0-.57,0-.86-.05a5.57,5.57,0,0,1-3.25-1.34.88.88,0,0,0-.45-.19h-.1a.9.9,0,0,0-.22,0h-.05l-1.07-1.24-.38-.43c-.28-.31-.54-.61-.78-.92l-.1-.13a9.39,9.39,0,0,1-1-1.6c-.19-.41-.47-1-1.16-1a1.67,1.67,0,0,0-.69.18,5,5,0,0,0-2.55,2.77,1.07,1.07,0,0,0,.16,1.08.81.81,0,0,0,.59.21l.29,0h.06c.22,0,.44-.06.66-.1a4.71,4.71,0,0,1,.81-.1l.25,0a21.37,21.37,0,0,1,2.32.6l1,.3,1.56.43-.73.15.27.58.1.25a2.31,2.31,0,0,0,.3.57,5.08,5.08,0,0,1,1.19,3.59,3.21,3.21,0,0,1-2.9,3Zm-2.14-7a2.3,2.3,0,0,0-1.4.38,1.56,1.56,0,0,0-.48.82,2.65,2.65,0,0,0,.55,2.21,3,3,0,0,0,2.26,1.18h.1a1.63,1.63,0,0,0,1.81-1.35,3.3,3.3,0,0,0-1.44-2.9A2.68,2.68,0,0,0,679.21,502.12Zm4.12-6.35a1.88,1.88,0,0,1,0,.19,1.18,1.18,0,0,0,0,.85,5,5,0,0,0,.92,1.13,10.14,10.14,0,0,0,1.36,1.14,1.3,1.3,0,0,0,.72.23h0a1,1,0,0,0,.71-.29.94.94,0,0,0,.26-.69v-.11l-.07-.15a2.86,2.86,0,0,0-.14-.27,5.57,5.57,0,0,0-2.38-2.32,1.79,1.79,0,0,0-.62-.14l-.18,0-.53-.09Z" transform="translate(-197 -157.19)"/><path d="M661.75,524.82c-.13,0-.27-.16-.34-.25-.47-.61-.93-1.25-1.37-1.88l-.42-.59-1.07-1.49q-1.66-2.31-3.31-4.62c-.61-.86-1.2-1.73-1.79-2.6l-.85-1.24c-.13-.19-.17-.25.15-.47l2.32-1.66c1.42-1,2.88-2.07,4.33-3.08,0,0,0,0,0,0h.09a.62.62,0,0,1,.24,0,8.17,8.17,0,0,1,1.39,1.67,2,2,0,0,1,.15.77c0,.18,0,.36.06.53l.09.52.51-.11c.24,0,.49-.12.73-.19a4.52,4.52,0,0,1,1.15-.23H664a4.71,4.71,0,0,1,3.94,2.65,3.14,3.14,0,0,1,.53,1.92,1,1,0,0,0,.21.84.82.82,0,0,0,.63.28,1.12,1.12,0,0,0,.65-.23,17.16,17.16,0,0,0,1.77-1.4,1.3,1.3,0,0,0,.15-1.44c-.8-1.17-1.66-2.33-2.48-3.45l-1-1.42c-.81-1.1-1.64-2.24-2.49-3.34s-.88-1.14.17-2a1.72,1.72,0,0,1,.21-.14l.1-.06a2.23,2.23,0,0,1,.79-.35c.14,0,.35.21.71.74.79,1.14,1.6,2.28,2.41,3.41.61.85,1.22,1.7,1.82,2.56s1.39,2,2.08,3,1.41,2,2.13,3.06a.47.47,0,0,1,.1.21.43.43,0,0,1-.15.14l-.88.62-3.17,2.22L670.31,519l-2,1.4c-.42.29-.83.59-1.23.89l-1.19.86a.63.63,0,0,1-.35.13.6.6,0,0,1-.43-.24,16.39,16.39,0,0,1-1.47-1.87.73.73,0,0,1,.09-.35,6,6,0,0,1,.68-.8l.34-.36.27-.31-.66-.9-.39.21-.19.1a2.38,2.38,0,0,0-.56.34c-.4.35-.67.52-.79.52s-.26-.12-.67-.67a1,1,0,0,0-.88-.37l-.73,0,.2.64s0,.1,0,.15a1.48,1.48,0,0,0,.22.55l1.26,1.75c.47.65.95,1.31,1.42,2a1.4,1.4,0,0,1,.29.62.72.72,0,0,1-.09.41,6,6,0,0,1-.77.56c-.21.14-.42.27-.62.43A.52.52,0,0,1,661.75,524.82Zm2.42-11.61a.93.93,0,0,0-.74.34,1.1,1.1,0,0,0-.18.94,7.78,7.78,0,0,0,.79,2,1.66,1.66,0,0,0,.68.61l.22.14.57.42.28-.89.2-.65a.75.75,0,0,0,0-.29,2.67,2.67,0,0,0-1.14-2.41A1.47,1.47,0,0,0,664.17,513.2Zm-6.41,1.66,1.7,2.46,1.17-.72-1.7-2.52Z" transform="translate(-197 -157.19)"/><path d="M718.12,439.36c-1.43,0-2.91-.08-4.36-.15-2-.11-4.05-.23-6.08-.36l-3.5-.21c-.48,0-.53-.17-.52-.48l.07-1.78c.08-2,.16-4.16.28-6.24a.71.71,0,0,1,.26-.23c.35,0,.8-.08,1.24-.08a4.84,4.84,0,0,1,1,.09c.13,0,.35.28.51.47a5.69,5.69,0,0,0,.4.42l.76.71.08-1a3.74,3.74,0,0,1,3-3.41,6.22,6.22,0,0,1,1.65-.23,5.17,5.17,0,0,1,3.24,1.14l.51.4.26-.59a4.63,4.63,0,0,0,.27-3c-.12-.51-.83-.81-1.2-.84-.94-.06-1.89-.09-2.81-.12l-1.68-.06-.85,0c-1.71-.07-3.48-.15-5.22-.26-.85-.06-.85-.06-.82-.93,0-.16,0-.33,0-.49a4.16,4.16,0,0,1,.06-.95.71.71,0,0,1,.19-.17c1.56,0,3.24.11,5.43.24l2.63.19,2.41.18c1.53.1,3.32.21,5.06.26a.81.81,0,0,1,.34.05.94.94,0,0,1,0,.27c0,.66,0,1.33,0,2s0,1.14,0,1.71a2.51,2.51,0,0,1-.14.6c0,.13-.08.27-.11.4l0,.1a1,1,0,0,0,0,.68,3,3,0,0,1-.07,1.73,5.13,5.13,0,0,0-.19,1.66,14.77,14.77,0,0,1,0,2.38c0,.41-.06.82-.07,1.23s-.09.37-.36.37h-1.4c-.33,0-.66,0-1,0-.63,0-.66,0-.68-.75a3.76,3.76,0,0,0-.09-.62l0-.23-.07-.42v-.16a1.61,1.61,0,0,1,0-.18,1.05,1.05,0,0,0-.09-.85,3.84,3.84,0,0,0-3-2h0c-.45,0-1.52.34-1.61,1a1.17,1.17,0,0,0,.4,1.06,1.86,1.86,0,0,0,1,.42l.29.07a2.34,2.34,0,0,0,.64.11h.06c.72,0,.93.12,1.07.59l.1.35s0,.36,0,.47,0,.52,0,.79,0,.4-.4.45l-.35,0h-6a.74.74,0,0,0-.39.13l-.1.06-.83.42.8.47.11.07a.9.9,0,0,0,.49.21l2.72.11c1.37.05,2.73.11,4.1.18s2.58.17,3.69.31c.6.08.68.11.59.85a8.53,8.53,0,0,0-.08,1.17.52.52,0,0,1-.08.35.55.55,0,0,1-.37.09Z" transform="translate(-197 -157.19)"/><path d="M709.88,460.81a12,12,0,0,1-2.85-.44l-.7-.17a11.89,11.89,0,0,1-2.67-.84c-1.6-.81-3.15-1.86-3.7-4a6.12,6.12,0,0,1,.25-3.79,4.81,4.81,0,0,1,3.76-3.32,6.25,6.25,0,0,0,.76-.21,3.18,3.18,0,0,1,.89-.2h.24a11.52,11.52,0,0,1,4.41.91,11.84,11.84,0,0,0,2.08.87,1,1,0,0,0,.26,0,1.48,1.48,0,0,0,1.23-.65,7.19,7.19,0,0,0,.54-1.88c.09-.48-.45-.91-.75-1-.75-.22-1.52-.41-2.26-.59l-.66-.17-.33-.08-.31-.07-1.47-.37c-1.33-.33-2.65-.67-4-1a21.26,21.26,0,0,1-2.25-.72l-.06-.1a15.93,15.93,0,0,1,.67-2.28.74.74,0,0,1,.3-.09c1.45.28,3,.63,4.74,1.06.67.16,1.35.36,2,.55l1.58.44,2.73.69,2.09.53,1.11.31.72.21c.3.08.37.2.28.51-.19.68-.39,1.35-.59,2s-.32,1.08-.47,1.62c-.07.26-.13.53-.18.79s-.07.34-.11.51c-.09.37-.19.73-.3,1.1l-.26.87-.14.45-.2.68c-.14.51-.29,1-.47,1.53-.06.17-.12.17-.15.17a.62.62,0,0,1-.24-.07,4.46,4.46,0,0,0-.71-.23l-.27-.07-.44-.13-.37.89.17.23a3.3,3.3,0,0,1,.55,2.73c-.28,1.35-1.19,2.1-3.15,2.6A5.35,5.35,0,0,1,709.88,460.81Zm-.93-5.09a2,2,0,0,0-.68.13,1.22,1.22,0,0,0-.68.86,1.32,1.32,0,0,0,.24.87.6.6,0,0,0,.41.25h.06A14.51,14.51,0,0,0,710,458l.52,0a.84.84,0,0,0,.77-.6,1,1,0,0,0-.4-1,5.73,5.73,0,0,0-1-.53l-.39-.18-.43-.22Zm-2.45-5.14a4,4,0,0,0-3.12,1.58,3,3,0,0,0-.25,2.73,2.61,2.61,0,0,0,.69,1c.1.1.2.2.28.3l.42.5.92-1.27.07-.09.11-.14A3.92,3.92,0,0,1,709,453.5h.07c.29,0,.58,0,.89.07s.57.06.86.07h0a1.07,1.07,0,0,0,.61-.22l.1-.06.51-.26-.32-.47-.05-.09a1,1,0,0,0-.39-.45,9.42,9.42,0,0,0-4.77-1.49h0Z" transform="translate(-197 -157.19)"/><path d="M642.79,532.56a2.93,2.93,0,0,1-.88-.12,5.74,5.74,0,0,1-3-2.28l0,0a22,22,0,0,1-2.13-3.68,8,8,0,0,1,0-6.72,3.47,3.47,0,0,1,2.46-2l.16,0a2.68,2.68,0,0,0,.58-.16,3.11,3.11,0,0,1,1.25-.25,6.29,6.29,0,0,1,2.34.58,7.62,7.62,0,0,1,2.78,2.24,9.24,9.24,0,0,1,1.15,2.07c.17.38.35.78.55,1.15.43.82,1,1.79,1.54,2.76a1.18,1.18,0,0,0,1,.46h.18c.47-.08.7-.63.76-.8a6.58,6.58,0,0,0-.06-3.75,5.16,5.16,0,0,0-.9-1.8c-.15-.21-.29-.43-.43-.65a5,5,0,0,0-1.91-2A7.49,7.49,0,0,0,647,517a1,1,0,0,1-.2-.08s0,0,0-.08c.1-.76.16-1.53.19-2.3,0-.37.07-.56.18-.56a1.23,1.23,0,0,1,.43.11,10.24,10.24,0,0,1,4.88,3.61,11.53,11.53,0,0,1,2,5.21,11.7,11.7,0,0,1-.12,3.76,4.46,4.46,0,0,1-1.09,2,2.39,2.39,0,0,1-1.78.79,2.57,2.57,0,0,1-.41,0h-.47c-1.41,0-2.52-.75-3.5-2.35a36.41,36.41,0,0,1-1.71-3.28c-.25-.53-.5-1.05-.76-1.57a4.12,4.12,0,0,0-2.66-2.19,1.65,1.65,0,0,0-.43-.05,3.3,3.3,0,0,0-2.45,1.27A1.05,1.05,0,0,0,640,523c2.24.07,3.74,1.26,4.87,3.84a9.78,9.78,0,0,1,.7,2.88,2.37,2.37,0,0,1-1.4,2.56A3.57,3.57,0,0,1,642.79,532.56Zm-1.9-6.49a1.15,1.15,0,0,0-.33,0,.94.94,0,0,0-.53.54c0,.07-.08.16-.14.24l-.19.3.54.72c.33.45.68.92,1,1.36a.85.85,0,0,0,.66.26h0a.81.81,0,0,0,.51-.16,1,1,0,0,0,.33-1.1,16.86,16.86,0,0,0-1.07-1.86A1,1,0,0,0,640.89,526.06Z" transform="translate(-197 -157.19)"/><path d="M698.14,488.18a2.52,2.52,0,0,1-.58-.07l-.08,0h-.08l-.42,0a4.73,4.73,0,0,1-4-2.23,3.44,3.44,0,0,1-.27-2.12,1.51,1.51,0,0,0-.82-1.71c-1.22-.7-2.54-1.51-4-2.46-.39-.25-.49-.37-.14-.91l.93-1.46c.58-.91,1.17-1.82,1.73-2.73s1.07-1.8,1.51-2.63.77-1,.94-1a2.17,2.17,0,0,1,1.08.57,3.12,3.12,0,0,0,.73.45c.3.13.49.28.53.44a1,1,0,0,1-.31.72,3.13,3.13,0,0,0-.56,1.06,1.18,1.18,0,0,0,1,1.63.74.74,0,0,1,.27.12c.43.31.68.5,1,.5s.69-.35,1-.87a4.74,4.74,0,0,1,2.47-2.31,4.28,4.28,0,0,1,1.24-.19,4.66,4.66,0,0,1,2.52.8,11.75,11.75,0,0,1,1.49,1.16,3.5,3.5,0,0,1,1.31,2.6,3.13,3.13,0,0,1-1.22,2.35.83.83,0,0,1-.49.24.8.8,0,0,1-.5-.29l-.39-.38-.76-.75c-.51-.51-.51-.73-.25-1.1a1.48,1.48,0,0,0-.17-1.57.78.78,0,0,0-.62-.24,2.37,2.37,0,0,0-.87.19,2,2,0,0,0-.71.63l-.1.12a1.23,1.23,0,0,0,.14,1.89c.76.69,1.49,1.46,2.19,2.21l.09.09a.93.93,0,0,1,.19.45c.39,2.52-.44,4.28-2.87,6.06A3.66,3.66,0,0,1,698.14,488.18Zm.75-7.25a2.27,2.27,0,0,0-1.27.82,16.75,16.75,0,0,0-1.15,1.76l-.11.19c-.57,1-.28,1.24-.17,1.34a2,2,0,0,0,1.23.56c1.18,0,2.8-2.09,2.94-3l0-.22-.13-.17-.22-.31a3.24,3.24,0,0,0-.81-.9l-.13-.08Zm-6.39-3.6-.15.12a.8.8,0,0,0-.4.55,1.14,1.14,0,0,0,.27,1,10.36,10.36,0,0,0,1.43,1,.78.78,0,0,0,.41.11h0a1.43,1.43,0,0,0,.61-.15.79.79,0,0,0,.37-.61.63.63,0,0,0-.17-.58c-.43-.4-.88-.78-1.33-1.17l-.71-.61Z" transform="translate(-197 -157.19)"/><path d="M658.08,504a2.62,2.62,0,0,1-2.22-1.44,2.69,2.69,0,0,1,0-2.72,1.89,1.89,0,0,1,1.42-.56,1.21,1.21,0,0,1,.57.12,4.88,4.88,0,0,1,1.22.89,2.84,2.84,0,0,1,.52,3.12c-.15.44-.55.54-1.32.57Z" transform="translate(-197 -157.19)"/><path d="M698.65,430.08a2.83,2.83,0,0,1-1.77-.61c-.64-.5-.88-.95-.78-1.5a1.94,1.94,0,0,1,1.65-1.64,3.67,3.67,0,0,1,.65-.06l.37,0a2.39,2.39,0,0,1,2.39,1.3,1.43,1.43,0,0,1,.06,1.2,2,2,0,0,1-1.14,1.05A4.18,4.18,0,0,1,698.65,430.08Z" transform="translate(-197 -157.19)"/><path d="M552.16,539.74a1.29,1.29,0,0,1-.42-.1c-1.89-.72-3.73-1.43-5.56-2.15-.87-.34-1.81-.74-3-1.24-.26-.11-.44-.24-.24-.74l.81-2c.38-.94.75-1.89,1.12-2.83.25-.64.49-1.29.72-1.94s.37-1,.56-1.52c.26-.68.54-1.36.82-2l.64-1.51c.46-1.08.93-2.2,1.35-3.32a8.28,8.28,0,0,0,.37-1.56c0-.22.07-.43.12-.64l.09-.44-1-.54-1,.82c-.5.41-1,.81-1.51,1.2l-1.59,1.23c-1.75,1.35-3.55,2.75-5.36,4.08a8.65,8.65,0,0,0-2.25,2.72c-.61,1-1.22,2-1.84,3l-.11.18-.07.08a1.82,1.82,0,0,0-.19.23,4.66,4.66,0,0,1-.82,1.05h0a4.42,4.42,0,0,1-1.12-.52,17.35,17.35,0,0,1-1.54-1l-.5-.34c-.12-.08-.14-.13-.14-.13h0a.5.5,0,0,1,.1-.23c.76-1.16,1.48-2.34,2.09-3.33.13-.21.24-.43.35-.65a5.4,5.4,0,0,1,.46-.79,8.33,8.33,0,0,0,1.37-4c.07-.46.14-.89.24-1.32.41-1.81.73-3.67,1-5.46.12-.67.23-1.34.35-2,.06-.33.09-.66.13-1,0-.14,0-.29,0-.43l.05-.43-1.19-.57-.3.37-.47.58c-.36.43-.72.88-1.06,1.35-.47.64-.6.66-.62.66s-.23-.06-.74-.49c-1.09-.93-2.28-1.86-3.61-2.85a1.1,1.1,0,0,0-.67-.2,1.83,1.83,0,0,0-.82.2,1.8,1.8,0,0,0-.59.56,1.61,1.61,0,0,1-.18.22,1.22,1.22,0,0,0-.45.95,1.33,1.33,0,0,0,.57.95l1.21,1,1.56,1.22c.61.47.67.62.68.65s0,.18-.5.73c-.29.35-.58.7-.86,1.06s-.61.77-.93,1.14-.37.31-.37.31-.13,0-.46-.29c-.88-.74-1.8-1.46-2.68-2.16l-.28-.22a1.44,1.44,0,0,0-.9-.35,1.34,1.34,0,0,0-1.13.7c-1.09,1.64-1,2,.48,3.24.87.71,1.76,1.4,2.62,2.08l.69.54c.18.14.29.28.3.36s0,.16-.24.43c-.48.55-.95,1.12-1.39,1.67-.32.4-.64.79-1,1.18-.08.1-.16.15-.22.15a1.6,1.6,0,0,1-.64-.36c-1.68-1.29-3.38-2.64-5-3.93L515,519c-.33-.26-.36-.38-.36-.39s0-.1.19-.34c.76-.94,1.52-1.88,2.28-2.82s1.7-2.09,2.54-3.14q1.92-2.4,3.81-4.82l2.06-2.61,1-1.27.7-.88a.36.36,0,0,1,.11-.11.57.57,0,0,1,.19.11l1.29,1c.88.66,1.8,1.34,2.67,2,.62.49,1.24,1,1.85,1.49.9.74,1.83,1.5,2.79,2.22a10.69,10.69,0,0,0,1.75,1l.8.4.48.25a7.64,7.64,0,0,1,1.21.71.75.75,0,0,1,.2.44c-.13.76-.3,1.54-.46,2.29s-.27,1.21-.38,1.82a2.15,2.15,0,0,0,.08.94c0,.09,0,.18.06.27l.14.85.75-.42.27-.14a3.57,3.57,0,0,0,.74-.45c.34-.29.68-.6,1-.9a17.94,17.94,0,0,1,1.88-1.57.94.94,0,0,1,.48-.09,1.61,1.61,0,0,1,.62.11c.75.34,1.47.75,2.22,1.19.44.26.89.51,1.34.75a2.56,2.56,0,0,0,.77.23l.32.07.85.28.57.19.28.1a7,7,0,0,0,.92.27.94.94,0,0,1,.69.44,1.06,1.06,0,0,1-.09.92,25.91,25.91,0,0,0-1,2.43c-.12.32-.24.63-.36.95l-.34.88c-.15.39-.29.78-.45,1.17l-.92,2.25q-.51,1.24-1,2.49l-.2.49a10.63,10.63,0,0,0-.65,1.85c-.25,1.15.77,1.52,1.27,1.7l.11,0c1.14.43,2.3.91,3.41,1.37l.21.09c.2.08.39.16.19.66-.5,1.24-1,2.56-1.6,3.86C552.26,539.74,552.22,539.74,552.16,539.74Z" transform="translate(-197 -157.19)"/><path d="M469.34,444.25c-.51,0-.52,0-.57-.75,0-.47-.08-.94-.13-1.41l0-.24c-.14-1.41-.1-1.49,1.14-2.1l1-.47,1.17-.57c1.48-.75,3-1.51,4.42-2.27l.15-.08a.76.76,0,0,0,.35-.45l.14-.33.4-.9-2.18.14c-.84,0-1.64.1-2.43.17s-1.45.15-2.17.23-1.4.16-2.11.22h-.11c-.18,0-.34,0-.37-.44,0-.79-.11-1.58-.17-2.37l0-.4c0-.35,0-.42.38-.46l2.48-.28c1.28-.15,2.56-.29,3.84-.42,2.7-.27,5.44-.51,7.81-.72l2.32-.18,1.71-.12a9.42,9.42,0,0,0,1.27-.17,2.1,2.1,0,0,1,.43-.06.31.31,0,0,1,.11,0h0a1,1,0,0,1,.13.44c.05.34.1.69.14,1,.06.51.13,1,.23,1.55a.93.93,0,0,1-.59,1.13l-2.94,1.5c-1.06.54-2.12,1.07-3.18,1.62a11.75,11.75,0,0,0-1.22.77l-.51.35-.42.27.46,1.08,1.25-.15c.59-.07,1.18-.15,1.77-.2l.78-.07c1.54-.15,3.13-.3,4.7-.38a1,1,0,0,1,.31.22,18.78,18.78,0,0,1,.41,3.09c0,.16,0,.43-.73.49l-2,.14c-1,.07-2,.13-2.93.23l-6.09.6-4.29.42h-.11c-1.23.12-2.49.24-3.74.31Z" transform="translate(-197 -157.19)"/><path d="M586.91,546.23h-.29l-1.06-.06c-.47,0-.95,0-1.42-.09-.79-.08-1-.3-1.19-1.22a26.69,26.69,0,0,0-.73-2.68l-.18-.58c-.42-1.38-.87-2.75-1.31-4.11l0-.06a2.22,2.22,0,0,0-.23-.47l-.08-.13-.18-.33-1.12,0L579,537l0,.29c0,.23-.08.47-.1.71q-.13,1.47-.25,2.95l-.22,2.62c0,.5-.08,1-.16,1.5,0,.23-.1.26-.3.26l-1,0c-.67,0-1.36-.06-2-.12a.48.48,0,0,1-.33-.13.84.84,0,0,1-.08-.58q.26-2.37.53-4.73c.29-2.56.58-5.12.85-7.68.2-1.92.36-3.87.51-5.76l.06-.7c.06-.79.16-.79.5-.79l.43,0c.75.1,1.55.19,2.37.22.48,0,.64.11.76.68.2.93.48,1.84.76,2.72.11.35.22.7.32,1q.64,2.14,1.28,4.28a1.86,1.86,0,0,0,.2.42l.06.11.16.3,1.16,0,.16-1.24c.07-.54.15-1.08.2-1.62.08-.79.15-1.58.23-2.37.1-1,.19-2,.3-3,.08-.76.15-.76.43-.76a3.89,3.89,0,0,1,.53,0,14.49,14.49,0,0,0,2,.15h.24a.75.75,0,0,1,.48.1.6.6,0,0,1,.07.39c-.09,1.69-.17,3.09-.31,4.54s-.31,3-.47,4.56q-.16,1.49-.31,3-.22,2.13-.42,4.27l-.29,2.94a1.3,1.3,0,0,1-.12.56h0A.91.91,0,0,1,586.91,546.23Z" transform="translate(-197 -157.19)"/><path d="M489.56,482.72a4.06,4.06,0,0,1-.76-.07h-.15l-.71,0a5.65,5.65,0,0,1-5.53-7.76,10.86,10.86,0,0,1,5.16-5.48l.12-.07a21.73,21.73,0,0,1,4.36-2.08,14.18,14.18,0,0,1,4.1-.72,7.51,7.51,0,0,1,2.93.56,5.79,5.79,0,0,1,3.33,7c-.88,2.73-2.85,4.29-4.85,5.56a18.36,18.36,0,0,1-3.88,2l-.7.24A10.69,10.69,0,0,1,489.56,482.72Zm5.73-11.92a2.94,2.94,0,0,0-.61.06,18.87,18.87,0,0,0-2.95.87,9.93,9.93,0,0,0-4.45,3l-.07.09c-.43.55-1.15,1.48-.42,2.41a5.9,5.9,0,0,0,1.47,1.21c.2.13.41.27.6.41l.48.36.35-.47a1.39,1.39,0,0,0,.31-.07l1.31-.46a21.59,21.59,0,0,0,3.22-1.3,7,7,0,0,0,3.33-3.2,2,2,0,0,0-.05-1.77,2,2,0,0,0-1.36-1A6.05,6.05,0,0,0,495.29,470.8Z" transform="translate(-197 -157.19)"/><path d="M563.82,543.49a6.16,6.16,0,0,1-4.51-2.57,9.07,9.07,0,0,1-1.3-5.29,19.3,19.3,0,0,1,1.25-6.78,10,10,0,0,1,4.09-5.66,7.33,7.33,0,0,1,2.79-.95,5.79,5.79,0,0,1,.85-.06c1.89,0,3.46,1,4.79,3.17a5.42,5.42,0,0,1,.73,2.18,13.91,13.91,0,0,1-.31,6.22c-.18.53-.32,1.08-.45,1.61a11.38,11.38,0,0,1-.65,2.09c-1,2.14-2,4-3.94,5a11.83,11.83,0,0,1-2.87,1A2.5,2.5,0,0,1,563.82,543.49Zm2.69-16.61a3.08,3.08,0,0,0-2.25,1,13.23,13.23,0,0,0-2.33,7V535c.09,1.06.29,3.56,2.22,3.56h0a3.29,3.29,0,0,0,1.26-.29,3.83,3.83,0,0,0,1.77-2,23.31,23.31,0,0,0,.85-2.49c.16-.52.32-1.06.5-1.58a5.15,5.15,0,0,0,0-3.24c-.19-.67-.59-2-1.92-2.13Z" transform="translate(-197 -157.19)"/><path d="M473.88,462.44c-.14,0-.22-.18-.26-.32a33.6,33.6,0,0,1-.88-3.78,1.1,1.1,0,0,1,.31-.74c1.23-.93,2.53-1.82,3.79-2.68l1.18-.81.65-.42.89-.57-.36-.51a1.93,1.93,0,0,0-1.63-.91,2.75,2.75,0,0,0-.68.09c-1.84.47-3.25.8-4.58,1.08a3.22,3.22,0,0,1-.62.09h0c-.19,0-.27,0-.46-.74-.13-.51-.23-1-.34-1.54-.07-.35-.15-.71-.23-1.06a.44.44,0,0,1,0-.29s.1-.12.44-.2l2.94-.64c1.65-.36,3.31-.71,5-1.1.84-.2,1.68-.43,2.5-.66.66-.18,1.33-.37,2-.54.93-.23,1.86-.44,2.79-.65l1.89-.43c.52-.12,1.2-.29,1.88-.51a1,1,0,0,1,.29-.05c.09,0,.18,0,.26.26.36,1.19.65,2.25.86,3.23l-.08.1c-.62.18-1.26.34-1.88.49L488,449a2.27,2.27,0,0,0-.71.38l-.2.14-.66.4.55.54.15.17a1.56,1.56,0,0,0,.74.57c1.24.37,2.51.69,3.74,1l.1,0c.74.19,1,.45,1.09,1.09a12.29,12.29,0,0,0,.43,1.82c.12.42.24.82.32,1.23a3,3,0,0,1,.08.61,2.58,2.58,0,0,1-.55-.12c-1-.31-2-.66-3-1l-2.12-.73c-.62-.21-1.23-.42-1.85-.62a2.26,2.26,0,0,0-.67-.11,3,3,0,0,0-1.94.92c-.14.12-.28.23-.42.34-2.12,1.52-4.25,3.11-6.31,4.64l-2,1.49a3.78,3.78,0,0,0-.34.29l-.2.18A.71.71,0,0,1,473.88,462.44Z" transform="translate(-197 -157.19)"/><path d="M474.8,411.39a11,11,0,0,1-3.42-.63,4,4,0,0,1-2.91-4.06c0-1.23.14-2.48.23-3.69.07-.92.14-1.83.19-2.75a.92.92,0,0,1,.08-.42h0a.67.67,0,0,1,.16,0h.13c.27,0,.55,0,.82,0h1.74v0l1.12.14c1.29.17,2.62.34,3.94.45,1,.08,2,.11,3,.13.7,0,1.4,0,2.09.07,1.37.07,2.75.16,4.12.25l3.1.19c.21,0,.33,0,.32.43,0,1.06-.07,2.29-.18,3.49-.1,1-.27,2.09-.44,3.1v.08a3.69,3.69,0,0,1-3.71,3.2h-1.24c-.23,0-.47,0-.7,0h-.29a5.45,5.45,0,0,1-2.8-1,1.91,1.91,0,0,0-.93-.24,1.19,1.19,0,0,0-.68.18A6.42,6.42,0,0,1,474.8,411.39Zm7.66-7-.34.09c-.46.11-1,.24-1.09.74a4.18,4.18,0,0,0,.06,2.3,2,2,0,0,0,1.77.88l.28,0a2.48,2.48,0,0,0,1.72-1.28,1.87,1.87,0,0,0,0-1.74,2.77,2.77,0,0,0-2.18-1l-.13,0Zm-7.93-.45a1.51,1.51,0,0,0-1.65,1.64c0,1.84.33,2.78,2.22,2.8h.08c1.87,0,2.24-1,2.3-2.82a1.27,1.27,0,0,0-.37-.94,3.45,3.45,0,0,0-2.5-.68Z" transform="translate(-197 -157.19)"/><path d="M509.78,513.75a4.94,4.94,0,0,1-4.47-3c-.06-.17-.14-.33-.21-.5a3.68,3.68,0,0,1-.26-.7,5.64,5.64,0,0,1-.09-1c0-.14,0-.27,0-.38a10,10,0,0,1,1.64-5.18,19.71,19.71,0,0,1,5.53-5.85,9.42,9.42,0,0,1,5.62-2.06,8.13,8.13,0,0,1,2,.27,4.51,4.51,0,0,1,2.31,1.65c1.87,2.29,1.78,4.9-.27,8.24a8.67,8.67,0,0,1-1,1.33c-.09.09-.14.12-.16.12s-.12,0-.25-.17c-.47-.47-1-.91-1.44-1.34l-.29-.27c-.71-.64-.72-.78-.15-1.51a2.26,2.26,0,0,0,.12-2.71,2.52,2.52,0,0,0-1.83-1.15,3.81,3.81,0,0,0-2.28.84,44,44,0,0,0-3.79,3.61,5.57,5.57,0,0,0-1.17,2.18,2.22,2.22,0,0,0,1,2.78,2.54,2.54,0,0,0,1.31.41,2.5,2.5,0,0,0,1.56-.62,3.75,3.75,0,0,1,.84-.57,3.93,3.93,0,0,1,.84.66,16.33,16.33,0,0,1,1.81,1.91.79.79,0,0,1,0,.22c-2.37,1.93-4.42,2.8-6.65,2.8Z" transform="translate(-197 -157.19)"/><path d="M467.28,427.72h-.1a1.5,1.5,0,0,1,0-.35c.07-1,0-2,0-2.93v-.32a.63.63,0,0,1,0-.16h0l.12,0c.29,0,.57-.08.84-.13h.07a1.92,1.92,0,0,0,1.73-2.1s0-.2,0-.26,0-.41,0-.62a2.87,2.87,0,0,0-.25-1.79,2.61,2.61,0,0,0-1.75-.85l-.45-.1c-.33-.09-.38-.15-.35-.48a10.42,10.42,0,0,0,0-1.08v-1c0-.43,0-.86,0-1.29,0,0,0,0,0-.06h.09l1.8.42,1.89.44,2.48.53,2.55.55c1.18.26,2.41.56,3.66.87l2.1.55c.88.23,1.76.47,2.65.69a10.71,10.71,0,0,0,1.32.21l.45.05c1.43.19,1.61.39,1.61,1.79v.55c0,.56,0,1.15,0,1.73s-.12.57-.45.65l-.66.16c-.72.18-1.44.36-2.17.52l-1.78.39-2.17.47-2.3.56c-.93.23-1.86.46-2.79.67s-2.12.46-3.18.67l-1.93.4-1.14.26c-.57.13-1.13.26-1.7.37Zm7.83-8.15c-.66,0-1.12.88-1.22,1.21a1.35,1.35,0,0,0,.18,1.19,1.23,1.23,0,0,0,1,.48h.13a7.43,7.43,0,0,0,3.85-1l.91-.53-.92-.51-.23-.14a1.28,1.28,0,0,0-.48-.21l-.62-.1a25.64,25.64,0,0,0-2.56-.35Z" transform="translate(-197 -157.19)"/><path d="M500,492.76a.78.78,0,0,1-.33-.11,31.94,31.94,0,0,1-2-2.87,1.26,1.26,0,0,0-1-.7,1.61,1.61,0,0,0-.9.37c-1.61,1.13-3.23,2.19-4.82,3.15h-.07a.89.89,0,0,1-.4-.09,18,18,0,0,1-1.32-1.91l-.34-.54a2.08,2.08,0,0,1-.16-.37v0l0-.07a1.82,1.82,0,0,1,.38-.46c2.19-1.45,4.57-3,7.26-4.68l3.74-2.34c1.44-.89,2.87-1.79,4.3-2.7a7.68,7.68,0,0,1,1.68-.93,6.89,6.89,0,0,1,.4.63c.17.28.38.63.65,1,.83,1.22,1.66,2.47,2.45,3.68l.91,1.38.26.38a5.92,5.92,0,0,1,.63,1,1.34,1.34,0,0,1-.11.23,13.82,13.82,0,0,1-1.61,1.26c-.26.19-.54.35-.82.51l-.61.37a1.11,1.11,0,0,1-.57.21c-.24,0-.47-.18-.68-.53l-.25-.43c-.5-.86-1-1.74-1.57-2.6a1.75,1.75,0,0,0-1.4-.93,2.58,2.58,0,0,0-1.52.67c-1.2.91-1,1.67-.3,2.6a18.5,18.5,0,0,1,1.51,2.39.64.64,0,0,1-.06.19C502.16,491.43,501.06,492.15,500,492.76Z" transform="translate(-197 -157.19)"/><path d="M601.1,471.51c.59-3.27,1.68-4.26,4.28-4.26a13,13,0,0,1,1.38.08Zm5.69-.13a1.86,1.86,0,0,1-.49-.07l2.19-3.44-.34-.35c.76.13,1.62.3,2.61.52a4.68,4.68,0,0,0-2.17,1.92C607.93,470.84,607.5,471.38,606.79,471.38Zm8,0H611l1-3,.08,0,.05-.44,0-.11h0v-.12c.12-1,.25-2,.38-2.92.33-2.48.67-5.05.84-7.59a6.08,6.08,0,0,0-1.17-3.23l-.15-.26a9.71,9.71,0,0,0-1.44-1.77l-.53-.57c-2.9-3.23-4-5.49-3.64-7.31s2.28-3.41,6.17-5.17a19.23,19.23,0,0,1,5.67-1.63,8.58,8.58,0,0,1,1-.06,5.31,5.31,0,0,1,4.11,1.65,6,6,0,0,1,1.24,4.81,36.27,36.27,0,0,1-1.07,5l-.1.39c-.3,1.13-.65,2.24-1.07,3.52-.2.61-.41,1.27-.63,2l-.36,1.15,7.33-2.56.07.1-.91.85c-1,1-2.1,1.94-3.06,3a8.83,8.83,0,0,0-1.85,3.15c-.56,1.76-1.08,3.56-1.58,5.31s-1,3.45-1.53,5.15a1.52,1.52,0,0,1-.94.67C617.74,471.35,616.46,471.37,614.79,471.37ZM529.2,458.54l2.11-2.24,4.62,1.42-.42.5-2.65.45-.49,2.31Zm2.6-4.18c-.83-.1-1.59-.17-2.3-.24a30.65,30.65,0,0,1-4.1-.57,2.54,2.54,0,0,1-1.53-1.23,4.15,4.15,0,0,1,.95-2.67,1.67,1.67,0,0,1,1-.23,2.25,2.25,0,0,1,.74.11,2.86,2.86,0,0,1,.48,1.45,2.73,2.73,0,0,1-.29,1.08c-.09.22-.18.45-.25.68l-.26.84.88-.06a4.13,4.13,0,0,0,3-1.29,3.29,3.29,0,0,0,.63-2.59,22.5,22.5,0,0,1-.07-3.36c0-.54,0-1.1,0-1.67V444h-.61l-.65,0-.9,0a8.14,8.14,0,0,1-1.11-.07l-.22,0c-.71-.09-1.77-.24-2.06-.61a4.53,4.53,0,0,1-.59-1.94l-.07-.4.36,0a11.2,11.2,0,0,1,1.45-.13,3.51,3.51,0,0,1,.71.06c.17,0,.51.52.73.84a9.73,9.73,0,0,0,.6.8l.3.35.42-.2a11,11,0,0,0,1.35-.81,4.56,4.56,0,0,1,2.17-1c.22,0,.9,0,1.8,1.33l.36.54.51-.4c.22-.18.43-.37.64-.56a3.15,3.15,0,0,1,1-.75,2.31,2.31,0,0,1,.63-.07c.28,0,.58,0,.89.06h.14c0,.17,0,.35-.05.52-.05.55-.14,1.47-.36,1.62a6.8,6.8,0,0,1-2.68.76c-.41.06-.79.12-1.15.2l-.45.1,0,.46c0,.52,0,1-.07,1.58,0,1.18-.09,2.4-.25,3.58-.39,2.86,1.83,3.33,3.29,3.64l.73.15v-4.19l.36,0a2.45,2.45,0,0,1,2.55,2.21,1.57,1.57,0,0,1-.1,1.25c-.4.6-1.52.8-2.34.95a26.32,26.32,0,0,1-3.38.3l-1.53.08-.25,0-.22.25Zm21.78-2.85a1.69,1.69,0,0,1-.82-.16,31.32,31.32,0,0,1-5-4.19l-1.08-1a9.53,9.53,0,0,1-1.25-1.61c-.22-.33-.46-.68-.73-1l-.65-.89-1.53,3.92-2.64-1.09c3-3.07,1.55-6.09.11-9a6.55,6.55,0,0,1-.27-3c0-.25,0-.49,0-.73,0-.71.12-1.42.22-2.16a20.55,20.55,0,0,0,.23-2.66c0-1,.31-1.46.93-1.46a1.87,1.87,0,0,1,.62.12,8.57,8.57,0,0,1,3.6,2.28,10.34,10.34,0,0,1,1.39,2.64,17.8,17.8,0,0,0,.93,2c1.94,3.41,4,6.78,5.56,9.33.38.62.82,1.21,1.24,1.79a13.39,13.39,0,0,1,1.85,3,3.85,3.85,0,0,1-.33,3.21A4,4,0,0,1,553.59,451.51Zm-23.21-13.08a10,10,0,0,1-4.09-.8l9.7-.8a9.43,9.43,0,0,1-5.61,1.6Zm.74-3.05c-.67,0-1.36,0-2-.08H529c-1.28-.07-2.42-.14-3.2-1.38h10.25a7.61,7.61,0,0,1-5,1.46Zm-.37-3.52a11.44,11.44,0,0,1-5.28-1.21h10.17a9.19,9.19,0,0,1-4.89,1.21Zm-.25-3.93c-1.35,0-2.71,0-4-.11A3.44,3.44,0,0,1,525,427l-.42-.3.1-.27h5.72c1.55,0,3.21,0,4.85.07a4,4,0,0,1,1.28.36h0c-.25.3-.68.81-.87.83C533.92,427.86,532.19,427.92,530.5,427.92Zm.87-7.07-1.48,0-1.2,0c.43-4.16.77-8.33,1.11-12.38,1.11-13.35,2.16-26,5.91-38.28l-.14,6.93c-.23,11.51-.47,23.4-.68,35.13a36.51,36.51,0,0,0,.34,6.22,2.14,2.14,0,0,1-.24,1.66,2.52,2.52,0,0,1-1.83.68C532.64,420.83,532.07,420.85,531.37,420.85ZM561,400.32l-.77-2.37-.48,0c-.71.07-1.43.17-2.13.28a23.88,23.88,0,0,1-3.4.34,6.36,6.36,0,0,1-4.85-1.93l1.24.14c1.94.22,3.77.43,5.59.57,1.09.08,2.32.18,3.52.18a17.93,17.93,0,0,0,1.91-.09,17.51,17.51,0,0,1,1.83-.12c2,0,2.71.55,3.59,3Z" transform="translate(-197 -157.19)" style="fill:#fdc60d"/><path d="M636.43,472.8l-4.1-.76.6-2.64-1.16.6-1.16.63a17.62,17.62,0,0,1-2.43,1.2,3.22,3.22,0,0,1-1.07.25c-.16,0-.25,0-.26-.06s-.14-.22.15-1l.53-1.5-4.38,2.4a7.76,7.76,0,0,1,2.49-6.27,3.64,3.64,0,0,1,2.54-1,8.11,8.11,0,0,1,3.08.77,8,8,0,0,0,2.92.81c2.11,0,2.3-2.16,2.32-4.37,0-.64,0-1.29-.06-1.92a15.38,15.38,0,0,1,.05-3.32c.86-5.22-1-9.38-6-13.46a35.62,35.62,0,0,1-4.73-5.07l-.23-.28a7.87,7.87,0,0,0-6.19-3.1,8.72,8.72,0,0,0-2.63.42,41.17,41.17,0,0,0-9.68,4.54c-7.6,4.88-16.78,10.17-27.27,12.4l-.18,0a4.38,4.38,0,0,1-.77.13h-.08s0-.12,0-.37a34.16,34.16,0,0,0,9-13.75l-1.07-.54-9.17,13.58-3.69,9.22,9.39-2.73a5.41,5.41,0,0,1-3.69,3.82,4.49,4.49,0,0,0-2.8,2.36,4.23,4.23,0,0,0,.42,3.45,8.41,8.41,0,0,1,.81,2.34,2.24,2.24,0,0,1-.27,1.73,1.69,1.69,0,0,1-1.33.48c-1.76,0-3.52,0-5.3,0h-6.58l2.44-5L565,468.07a18.17,18.17,0,0,0-2,1.64c-1.19,1.09-2.22,2-3.66,2h-.17l2.22-4.1-7,4.39c.11-4,1.45-5.33,5.1-5.46,2.84-.1,4.71-.75,5.87-2s1.58-3.14,1.37-5.85a43.16,43.16,0,0,0-1-6c-.29-1.3-.59-2.64-.79-4s-.38-2.54-.57-3.81c-.48-3.32-1-6.75-1.71-10.13l-1.2.15.58,13.12c-6-4.8-11-9-11.76-16.49a12.47,12.47,0,0,1,4.82-11.28,92.3,92.3,0,0,1,10-6.86,4.48,4.48,0,0,0,2.08-3.58,4.91,4.91,0,0,0-1.95-4.16l-.5-.39-.37.52-.4.58a13.62,13.62,0,0,1-.9,1.22,10.14,10.14,0,0,1-.89.88l.42-4.14-.93.37c-2.36.93-2.75,1.58-3,4.87-1-1-.87-2.33-.61-4.39l.16-1.33-.93.34c-1.94.7-2.31,2.23-2.63,3.57a8.64,8.64,0,0,1-.38,1.29l.53-4.94-1.07.71a17.72,17.72,0,0,0-2.05,1.66c-1.15,1-2.16,1.94-3.5,2.12l.28-.55a9.67,9.67,0,0,0,1.27-3.4,11.11,11.11,0,0,0-.5-3.75l-.14-.58,9.21.79.19,1.43,11.39.7,0-.61c.18-3.78-2.17-5.92-4.66-8.19a22.78,22.78,0,0,1-3.64-3.89l-1-1.43-.35,4.62c-2.1-.28-3.09-1.84-4.21-3.61-.24-.38-.48-.76-.73-1.13l-.32-.47L552,390.36l-.89-1.14a32.73,32.73,0,0,1-2.85-4,2.94,2.94,0,0,1,.23-2.13,4,4,0,0,1,1.7-.32,7.37,7.37,0,0,1,1.38.14c.06.27.11.8.14,1.18s.07.84.13,1.22l.11.66,12.36-3.3.26,1.57a3.36,3.36,0,0,0-1.91,1.88,4.21,4.21,0,0,0,.63,3.7,3.4,3.4,0,0,0,1.72,1.16,7.65,7.65,0,0,1,.72.32l.54.29.29-.54a7.78,7.78,0,0,1,.45-.71c.47-.68.95-1.38.75-2.08a7.49,7.49,0,0,0-.5-1.29,20.42,20.42,0,0,0,2.49,1.7,22.81,22.81,0,0,0,3.78,1.57c.55.19,1.1.38,1.65.59l.49.19.77-1.39V393l-3.83-3-1.27.74,1.37,3.63-3.9-3.32-1.43,1.67,7.06,6.18.15-.08-.52,3.28-2.44-2.75-1.69,1.24,3.49,4.69-1.06,0-.26,4.68-1.81-3.12-1.61.34-.26,5.61,1.69.27.39-.89,3.25,3.38,1.38-1-.05-.36c-.06-.42-.13-.85-.2-1.27-.15-.93-.3-1.89-.37-2.83,0-.65-.05-1.31,0-2a1,1,0,0,0,.14.27c1.71,2.32,3.54,4.78,5.52,7.15a2.14,2.14,0,0,0,1.7.49,5.49,5.49,0,0,1,.61,0l.76.1-.13-1.42,3.5,1.74.22-3.4L590.4,416l1.61-5.75,6-1,15.32-2.62c1.59-.27,3.19-.59,4.75-.89,3.41-.66,6.93-1.34,10.41-1.67.22,0,.45,0,.68,0a18.77,18.77,0,0,1,4.64.84c.73.19,1.48.39,2.22.55,1.39.29,2.78.64,4.26,1l2.18.54.75.18v-.77c0-.82,0-1.6.06-2.34a19.9,19.9,0,0,0-.13-4.33,8.43,8.43,0,0,0-8.33-7.28,9.39,9.39,0,0,0-3,.51c-4.53,1.54-9.43,3-14.56,3q-.67,0-1.35,0c-5.48-.26-10.34-.76-14.4-4.21a3.14,3.14,0,0,0-2-.84,3,3,0,0,0-2.32,1.26,30,30,0,0,0-2.12,3.09l-.34.55a6.13,6.13,0,0,1,.39-5.93,6.51,6.51,0,0,0,.77-3.68c-.45-4.76,1.15-8.24,4.92-10.63a19.19,19.19,0,0,1,10.41-3.13,22.11,22.11,0,0,1,6,.87c6.69,1.89,13.51,5.1,21.45,10.13l1.7,1.07,1.57,1,.2-.82c.08-.31.13-.62.18-.91a3.75,3.75,0,0,1,.38-1.33,4.26,4.26,0,0,1,1.8-1.8h.06a2.13,2.13,0,0,1,1.35.66,3.8,3.8,0,0,1,.14,2.69,3,3,0,0,1-2.8,1.79,4.3,4.3,0,0,1-1.49-.28c-2.27-.84-4.53-1.89-6.71-2.9-.91-.42-1.81-.84-2.72-1.25-.28-.12-.55-.26-.93-.46l-.82-.41-1.41-.7,1.5,3.82c-3.43-.27-5.42-2.74-7.52-5.35l-1-1.2-.36,1c-1.31,3.65-1.43,3.79-3.08,3.79h-.3c.71-1.78,1.16-3.83-1.13-5.74l-.78-.64-.92,4.4-4.5-6.23v6.15c-.56-.2-1.12-.43-1.67-.66A12.58,12.58,0,0,0,605,377.8a4.16,4.16,0,0,0-1,.12c-1.78.45-2.77,2.95-3.73,5.36-.15.38-.3.74-.44,1.09l-.84,2,1.76-1.31.63-.47c1.33-1,2.59-2,4-2a3.49,3.49,0,0,1,1.56.39c-1.55,3.42-1.25,4.55,1.59,7.33l.73.72.27-1,.18-.65c.13-.46.25-.89.36-1.32s.17-.77.28-1.28a10.71,10.71,0,0,0,8.94,4.51,24.35,24.35,0,0,0,6.59-1.11,21.45,21.45,0,0,1,5.8-.78,30.25,30.25,0,0,1,12.53,3c4.86,2.22,6.53,6,5,11.11a32.88,32.88,0,0,1-2,4.61c-.36.74-.72,1.49-1.07,2.27l-.25.56.56.24c4.62,2,6.05,5.92,4.37,11.9-.77,2.73-1.81,5.45-2.81,8.09-.58,1.52-1.18,3.09-1.72,4.65l-.18.52a46.09,46.09,0,0,0-1.9,6.42c-.66,3.42-.25,6,1.22,7.82s3.67,2.53,6.79,2.53h.46a8.85,8.85,0,0,1-7,3l-.65,0-1.23-.06,3,4.33c-1.44,2.26-.86,4.57-.29,6.8.08.31.16.63.23.94.33,1.41.3,2.34-.09,2.84a2.52,2.52,0,0,1-2,.62l-.69,0a21.41,21.41,0,0,1-3.79-.76c-.64-.17-1.29-.34-2-.49l-.74-.17v2.59Zm-57.07-66.47-1.49.3.63,3.63-2.6-3.88.71-4.81,4,2.13.27-2.95,3.62,4.32.62-4.49c.16.37.31.77.45,1.18.67,1.85,1.49,4.12,4.67,4.54l-1,6-5.15-7-1.41.5,1.79,7.4,0,0Zm-3.48-8.24-.18-2.7,2,.22.62,4.16Zm.52-9.47v.6l-1.14-1.57.47.19a12.29,12.29,0,0,0,4.52,1.17,6.43,6.43,0,0,0,1-.08l-.59,2.85Zm9.77-3.05,2.25-.9-.36-1.42H577.18l1.59,3.21-7.6-3.42,1,4.41-6.89-5.06,2-.54-4.66-3.38a4.17,4.17,0,0,1,2.19-.89c1.08,0,2.18,1,3.92,3.45l.24.34.4-.1c3-.74,4-2.2,3.79-6.23l.61.43c1.14.8,2.12,1.49,3.1,2.21.44.32.85.68,1.29,1.05l.6.51.54.45.36-.6c.15-.25.32-.5.48-.75a10.42,10.42,0,0,0,1.09-2,4.81,4.81,0,0,0,.22-1.7l.56.51a7.66,7.66,0,0,1,2.17,2.5,3.2,3.2,0,0,0,3.12,2.37,9.48,9.48,0,0,0,1.87-.26,19,19,0,0,0,3-1l.93-.35h0l-3.9,5.75.13.3c.08.2.2.44.32.71a18.7,18.7,0,0,1,1.07,2.68,16.21,16.21,0,0,1,.45,2.71l.06.57Zm-4.87,3.35a6.72,6.72,0,0,0,1.51-.44l.3-.13.2,1.92Zm.25-3h1.3l.17,1.62Z" transform="translate(-197 -157.19)" style="fill:#fdc60d"/><path d="M532.52,424.25c-4.34,0-8.73-1.61-11-4V418.7l.62-.36a6.14,6.14,0,0,1,1.89-.88,4.56,4.56,0,0,1,.82-.09c.24,0,.56,0,.68.2s.2.39-.05,1.23a3.13,3.13,0,0,0,1,2.74,9.2,9.2,0,0,0,5.81,1.72,8.89,8.89,0,0,0,5-1.32,2.18,2.18,0,0,0,.7-1.19,3.53,3.53,0,0,1,.18-.48c.26-.51.53-1,.8-1.5l0,0,.37.24a4.33,4.33,0,0,1,1.16.9,3.77,3.77,0,0,1-1.32,2.68A12.17,12.17,0,0,1,532.52,424.25Z" transform="translate(-197 -157.19)" style="fill:#fdc60d"/><path d="M601.1,471.51c.59-3.27,1.68-4.26,4.28-4.26a13,13,0,0,1,1.38.08Zm5.69-.13a1.86,1.86,0,0,1-.49-.07l2.16-3.4-.31-.39c.76.13,1.62.3,2.61.52a4.68,4.68,0,0,0-2.17,1.92C607.93,470.84,607.5,471.38,606.79,471.38Zm8,0H611l1-3,.08,0,.05-.44,0-.11h0v-.12c.12-1,.25-2,.38-2.92.33-2.48.67-5.05.84-7.59a6.08,6.08,0,0,0-1.17-3.23l-.15-.26a9.72,9.72,0,0,0-1.44-1.77l-.53-.57c-2.9-3.23-4-5.49-3.64-7.31s2.28-3.41,6.17-5.17a19.23,19.23,0,0,1,5.67-1.63,8.58,8.58,0,0,1,1-.06,5.31,5.31,0,0,1,4.11,1.65,6,6,0,0,1,1.24,4.81,36.29,36.29,0,0,1-1.07,5l-.1.39c-.3,1.13-.65,2.24-1.07,3.52-.2.61-.41,1.27-.63,2l-.36,1.15,7.33-2.56.07.1-.91.85c-1,1-2.1,1.94-3.06,3a8.83,8.83,0,0,0-1.85,3.15c-.56,1.76-1.08,3.56-1.58,5.31s-1,3.45-1.53,5.15a1.52,1.52,0,0,1-.94.67C617.74,471.35,616.46,471.37,614.79,471.37Z" transform="translate(-197 -157.19)" style="fill:#fdc60d"/><path d="M531.37,420.85l-1.48,0-1.2,0c.43-4.16.77-8.33,1.11-12.38,1.11-13.35,2.16-26,5.91-38.28l-.14,6.94c-.23,11.5-.47,23.4-.68,35.12a36.51,36.51,0,0,0,.34,6.22,2.14,2.14,0,0,1-.24,1.66,2.52,2.52,0,0,1-1.83.68C532.64,420.83,532.07,420.85,531.37,420.85Z" transform="translate(-197 -157.19)" style="fill:#fdc60d"/><path d="M553.59,451.51a1.69,1.69,0,0,1-.82-.16,31.32,31.32,0,0,1-5-4.19l-1.08-1a9.53,9.53,0,0,1-1.25-1.61c-.22-.33-.46-.68-.73-1l-.65-.89-1.53,3.92-2.64-1.09c3-3.07,1.55-6.09.11-9a6.55,6.55,0,0,1-.27-3c0-.25,0-.49,0-.73,0-.71.12-1.42.22-2.16a20.55,20.55,0,0,0,.23-2.66c0-1,.31-1.46.93-1.46a1.87,1.87,0,0,1,.62.12,8.57,8.57,0,0,1,3.6,2.28,10.34,10.34,0,0,1,1.39,2.64,17.8,17.8,0,0,0,.93,2c1.94,3.41,4,6.78,5.56,9.33.38.62.82,1.21,1.24,1.79a13.39,13.39,0,0,1,1.85,3,3.85,3.85,0,0,1-.33,3.21A4,4,0,0,1,553.59,451.51Z" transform="translate(-197 -157.19)" style="fill:#fdc60d"/><path d="M529.2,458.54l2.11-2.24,4.62,1.42-.42.5-2.65.45-.49,2.31Zm2.6-4.18c-.83-.1-1.59-.17-2.3-.24a30.65,30.65,0,0,1-4.1-.57,2.54,2.54,0,0,1-1.53-1.23,4.15,4.15,0,0,1,.95-2.67,1.67,1.67,0,0,1,1-.23,2.25,2.25,0,0,1,.74.11,2.86,2.86,0,0,1,.48,1.45,2.73,2.73,0,0,1-.29,1.08c-.09.22-.18.45-.25.68l-.26.84.88-.06a4.13,4.13,0,0,0,3-1.29,3.29,3.29,0,0,0,.63-2.59,22.5,22.5,0,0,1-.07-3.36c0-.54,0-1.1,0-1.67V444h-.61l-.65,0-.9,0a8.14,8.14,0,0,1-1.11-.07l-.22,0c-.71-.09-1.77-.24-2.06-.61a4.53,4.53,0,0,1-.59-1.94l-.07-.4.36,0a11.21,11.21,0,0,1,1.45-.13,3.51,3.51,0,0,1,.71.06c.17,0,.51.52.73.84a9.73,9.73,0,0,0,.6.8l.3.35.42-.2a11,11,0,0,0,1.35-.81,4.56,4.56,0,0,1,2.17-1c.22,0,.9,0,1.8,1.33l.36.54.51-.4c.22-.18.43-.37.64-.56a3.15,3.15,0,0,1,1-.75,2.31,2.31,0,0,1,.63-.07c.28,0,.58,0,.89.06h.14c0,.17,0,.35-.05.52-.05.55-.14,1.47-.36,1.62a6.8,6.8,0,0,1-2.68.76c-.41.06-.79.12-1.15.2l-.45.1,0,.46c0,.52,0,1-.07,1.58,0,1.18-.09,2.4-.25,3.58-.39,2.86,1.83,3.33,3.29,3.64l.73.15v-4.19l.36,0a2.45,2.45,0,0,1,2.55,2.21,1.57,1.57,0,0,1-.1,1.25c-.4.6-1.52.8-2.34.95a26.38,26.38,0,0,1-3.38.3l-1.53.08-.25,0-.22.25Z" transform="translate(-197 -157.19)" style="fill:#fdc60d"/><path d="M585,394.52l.56.3v-5.37c2.82,2.39,4.5,5.09,4.45,7.23a3.11,3.11,0,0,1-1.46,2.62l-.31.21.44,3.52Zm-2.32,4.58c-.81-1.24-1.51-2.31-2.3-3.35a3.85,3.85,0,0,0-1.32-1l-.2-.11-.1-1.26,3,1.84,1.33-1.77,1,.55-1,.11-.37,5.08Z" transform="translate(-197 -157.19)" style="fill:#fdc60d"/><path d="M561,400.32l-.77-2.37-.48,0c-.71.07-1.43.17-2.13.28a23.88,23.88,0,0,1-3.4.34,6.36,6.36,0,0,1-4.85-1.93l1.24.14c1.94.22,3.77.43,5.59.57,1.09.08,2.32.18,3.52.18h0a17.93,17.93,0,0,0,1.91-.09,17.5,17.5,0,0,1,1.83-.12c2,0,2.71.55,3.59,3Z" transform="translate(-197 -157.19)" style="fill:#fdc60d"/><path d="M530.5,427.92c-1.35,0-2.71,0-4-.11A3.44,3.44,0,0,1,525,427l-.42-.3.1-.27h5.72c1.55,0,3.21,0,4.85.07a4,4,0,0,1,1.28.36h0c-.25.3-.68.81-.87.83C533.92,427.86,532.19,427.92,530.5,427.92Z" transform="translate(-197 -157.19)" style="fill:#fdc60d"/><path d="M530.75,431.85a11.44,11.44,0,0,1-5.28-1.21h10.17A9.2,9.2,0,0,1,530.75,431.85Z" transform="translate(-197 -157.19)" style="fill:#fdc60d"/><path d="M531.12,435.37c-.67,0-1.36,0-2-.08H529c-1.28-.07-2.42-.14-3.2-1.38h10.25A7.62,7.62,0,0,1,531.12,435.37Z" transform="translate(-197 -157.19)" style="fill:#fdc60d"/><path d="M530.37,438.43a10,10,0,0,1-4.09-.8l9.7-.8A9.43,9.43,0,0,1,530.37,438.43Z" transform="translate(-197 -157.19)" style="fill:#fdc60d"/><path d="M573.11,413.14l.17-3.08v.11c.07,1,.23,2,.38,2.94l.12.73Zm-3-3.11-.41.93.11-2.48,1.79,3.1Z" transform="translate(-197 -157.19)" style="fill:#fdc60d"/><text transform="translate(0 87.64)" style="font-size:104.7027587890625px;font-family:MyriadPro-Semibold, Myriad Pro;font-weight:700"><tspan style="letter-spacing:-0.002989303098312396em">B</tspan><tspan x="59.99" y="0">ANK OF CE</tspan><tspan x="544.13" y="0" style="letter-spacing:-0.012983182255384884em">Y</tspan><tspan x="602.98" y="0" style="letter-spacing:-0.038986854761141394em">L</tspan><tspan x="650.51" y="0">ON</tspan></text><text transform="translate(1 502.02)" style="font-size:84.4767837524414px;font-family:MyriadPro-Semibold, Myriad Pro;font-weight:700"><tspan style="letter-spacing:0.0029882932923888023em">B</tspan><tspan x="48.91" y="0">an</tspan><tspan x="140.14" y="0" style="letter-spacing:-0.006988097853961435em">k</tspan><tspan x="182.55" y="0">ers </tspan><tspan x="308.92" y="0" style="letter-spacing:-0.005999706842358949em">t</tspan><tspan x="338.07" y="0">o the N</tspan><tspan x="599.35" y="0" style="letter-spacing:-0.005999706842358949em">a</tspan><tspan x="641.76" y="0">tion</tspan></text></svg>