<svg width="740" height="453" viewBox="0 0 740 453" fill="none" xmlns="http://www.w3.org/2000/svg">
<path fill-rule="evenodd" clip-rule="evenodd" d="M309.422 365.418L370.185 281.462C375.8 274.221 391.594 274.588 393.955 274.588C420.192 274.588 497.379 274.588 523.405 274.588H543.765C576.088 274.588 608.411 274.588 640.734 274.588C662.597 274.588 684.496 274.588 706.429 274.588C707.753 274.584 709.063 274.864 710.27 275.407C711.477 275.951 712.553 276.746 713.428 277.74C714.303 278.734 714.955 279.903 715.34 281.169C715.726 282.436 715.837 283.77 715.665 285.083C713.356 298.253 710.837 311.319 708.476 324.542C704.803 344.482 701.235 364.421 697.562 384.361C694.99 398.371 692.314 412.381 689.743 426.339C688.799 431.271 688.064 436.256 687.172 441.136C686.638 444.508 684.895 447.572 682.269 449.754C679.643 451.936 676.313 453.088 672.899 452.995H399.203C386.137 452.995 371.182 452.995 358.117 452.995C348.672 452.995 343.214 441.556 343.214 441.556L309.422 365.418Z" fill="#00A651"/>
<path fill-rule="evenodd" clip-rule="evenodd" d="M414.523 399.001C413.474 405.193 412.372 411.332 411.322 417.472C410.848 421.24 410.13 424.973 409.171 428.648C408.775 429.517 408.178 430.279 407.43 430.871C406.682 431.464 405.804 431.871 404.868 432.059C398.624 432.426 392.38 432.059 386.083 432.059C382.672 432.059 381.728 430.642 382.305 427.179C384.929 412.644 387.552 398.057 390.071 383.522C393.289 365.646 396.455 347.753 399.568 329.842C400.775 322.969 401.93 316.095 403.137 309.221C403.924 304.761 405.655 303.344 410.693 302.399C421.839 300.1 433.162 298.766 444.537 298.411C449.727 297.914 454.963 298.491 459.92 300.107C464.876 301.723 469.446 304.343 473.345 307.804C476.324 310.584 478.686 313.959 480.277 317.71C481.868 321.462 482.653 325.506 482.58 329.58C482.168 337.399 481.362 345.192 480.166 352.93C479.337 361.155 477.007 369.158 473.292 376.543C470.274 382.857 465.622 388.25 459.819 392.161C454.016 396.073 447.273 398.362 440.287 398.791C431.944 399.579 423.443 399.001 414.523 399.001ZM427.536 325.54C425.437 337.451 421.135 361.746 419.508 371.821C419.361 372.426 419.349 373.056 419.472 373.666C419.595 374.277 419.851 374.852 420.221 375.353C420.592 375.854 421.068 376.267 421.615 376.563C422.163 376.859 422.769 377.032 423.391 377.068C431.367 377.697 441.232 376.753 447.004 370.666C452.776 364.579 453.3 356.656 454.35 349.677C455.399 342.698 458.128 330.052 453.248 324.228C448.368 318.403 437.978 321.185 432.993 321.552C431.799 321.547 430.633 321.913 429.656 322.599C428.679 323.286 427.938 324.258 427.536 325.382V325.54Z" fill="white"/>
<path fill-rule="evenodd" clip-rule="evenodd" d="M544.553 390.027C541.016 392.986 537.098 395.457 532.904 397.373C521.517 401.466 507.087 400.783 498.692 390.604C494.224 384.91 491.671 377.949 491.398 370.717C491.243 362.791 492.071 354.878 493.864 347.156C494.81 339.69 496.696 332.373 499.479 325.38C502.135 318.926 506.347 313.228 511.739 308.797C517.132 304.366 523.538 301.338 530.385 299.984C539.204 298.31 548.22 297.938 557.146 298.882C565.384 299.663 573.567 300.942 581.651 302.712C582.248 302.781 582.822 302.978 583.335 303.291C583.848 303.604 584.287 304.024 584.622 304.523C584.956 305.022 585.178 305.588 585.272 306.181C585.366 306.775 585.33 307.381 585.166 307.959C583.225 318.769 581.388 329.631 579.552 340.44C576.404 358.281 573.36 376.226 570.212 394.067C570.184 394.703 570.021 395.326 569.733 395.893C569.445 396.461 569.039 396.96 568.542 397.358C568.045 397.756 567.468 398.042 566.851 398.199C566.234 398.355 565.591 398.378 564.964 398.265C560.137 398.265 551.741 397.95 546.861 397.95C543.556 398.107 544.553 391.338 544.553 390.027ZM543.031 374.285C544.062 374.013 544.999 373.463 545.74 372.695C546.48 371.927 546.995 370.97 547.229 369.93C548.75 361.324 553.473 337.292 555.31 326.43C555.782 323.754 554.155 320.448 548.331 319.766C543.99 319.119 539.555 319.694 535.523 321.427C531.491 323.16 528.022 325.983 525.505 329.578C521.255 336.714 515.011 366.309 521.937 372.133C525.768 375.544 530.385 378.325 543.031 374.547V374.285Z" fill="white"/>
<path fill-rule="evenodd" clip-rule="evenodd" d="M622.263 307.28C622.312 306.779 622.244 306.272 622.064 305.801C621.884 305.33 621.597 304.908 621.225 304.567C620.854 304.226 620.408 303.976 619.924 303.837C619.439 303.697 618.929 303.673 618.433 303.765C611.402 303.765 604.423 303.765 597.444 303.765C594.505 303.765 593.351 305.077 593.666 307.805C593.981 310.534 602.481 377.646 603.688 384.94C603.862 387.132 604.588 389.244 605.8 391.079C607.011 392.914 608.667 394.413 610.615 395.434C613.218 396.376 615.907 397.061 618.643 397.481C617.593 399.737 616.544 401.888 615.599 404.04C614.37 407.021 612.343 409.606 609.743 411.512C607.142 413.419 604.067 414.573 600.855 414.849C593.771 414.849 587.212 414.849 579.866 414.849C579.362 414.759 578.844 414.777 578.348 414.902C577.851 415.027 577.387 415.255 576.985 415.573C576.584 415.89 576.254 416.289 576.018 416.743C575.782 417.197 575.644 417.696 575.615 418.207C574.933 421.775 574.146 425.973 573.464 429.489C572.624 434.054 573.097 433.844 577.872 434.736C588.019 435.446 598.199 435.551 608.358 435.051C620.952 433.897 631.761 423.664 637.166 412.33C643.882 398.268 684.391 310.376 685.073 307.962C685.755 305.549 685.073 304.342 682.187 304.342C675.366 304.342 668.597 304.342 661.775 304.342C660.411 304.182 659.035 304.517 657.898 305.288C656.761 306.059 655.94 307.213 655.583 308.54C649.497 323.389 634.594 363.006 633.178 365.892C632.705 366.994 631.761 369.513 629.714 369.618C626.199 369.618 626.514 364.003 626.251 361.589C625.569 357.497 622.683 315.151 622.263 307.28Z" fill="white"/>
<path d="M281.768 235.811V151.488L316.662 72.7793V236.126L281.768 235.811Z" fill="#231F20"/>
<path d="M2.14084 194.62C12.6354 199.867 25.8584 214.612 51.8323 212.566C70.1453 211.096 79.1181 202.596 79.1181 190.947C79.1181 180.452 70.7225 173.946 49.4711 166.757C20.034 156.263 0.619141 140.521 0.619141 114.967C0.619141 85.3197 26.0683 62.9139 67.5741 62.9139C83.0739 62.4614 98.4826 65.4357 112.701 71.6244L112.281 105.312C97.9678 99.0905 82.6395 95.5341 67.0494 94.8172C49.7334 94.8172 41.3378 102.793 41.3378 111.556C41.3378 122.628 51.0452 127.298 74.1332 136.271C105.354 147.657 119.784 163.609 119.784 188.323C119.784 217.446 97.2211 242.213 48.684 242.213C32.6303 242.717 16.6841 239.427 2.14084 232.61V194.62Z" fill="#231F20"/>
<path d="M215.443 154.582L180.339 69.9965H133.376L133.114 235.81H164.86V135.22L173.308 154.582" fill="#231F20"/>
<path d="M215.442 154.584L230.082 189.164L310.47 0L347.253 0.83958L248.027 235.549L228.98 277.79L173.306 154.584H215.442Z" fill="#ED1C24"/>
<path d="M480.583 234.555L421.761 69.9482H376.215L316.659 236.129H357.22L369.604 197.876H428.793L440.022 235.814H481.055L480.583 234.555ZM377.055 169.646C377.055 169.646 398.044 104.423 398.726 99.0705C398.726 99.0705 401.244 111.716 403.186 117.646C405.127 123.575 418.928 170.118 418.928 170.118L377.055 169.646Z" fill="#231F20"/>
<path d="M566.014 161.039C587.003 156.107 604.424 139.158 604.109 117.645C603.322 69.6322 555.782 70.4193 555.782 70.4193H484.839L484.524 234.291V235.34H521.885V172.373H534.111C543.189 172.373 555.1 193.362 555.1 193.362L580.287 235.76L623.682 236.128C623.682 236.128 592.67 185.649 583.488 174.735C578.924 168.757 572.909 164.043 566.014 161.039ZM543.504 144.091H522.042V97.9149C542.349 95.711 564.02 97.1278 564.545 119.429C565.07 144.406 543.504 144.091 543.504 144.091Z" fill="#231F20"/>
<path d="M739.224 69.9965L607.728 70.3114V101.06H655.373V235.495H691.894V100.011H739.381L739.224 69.9965Z" fill="#231F20"/>
</svg>
